<?xml version="1.0" encoding="UTF-8"?>
<!--Generator: Apple Native CoreSVG 149-->
<!DOCTYPE svg
PUBLIC "-//W3C//DTD SVG 1.1//EN"
       "http://www.w3.org/Graphics/SVG/1.1/DTD/svg11.dtd">
<svg version="1.1" xmlns="http://www.w3.org/2000/svg" xmlns:xlink="http://www.w3.org/1999/xlink" width="3300" height="2200">
 <!--glyph: "uni10048D.medium", point size: 100.000000, font version: "Version 16.0d18e1", template writer version: "8"-->
 <g id="Notes">
  <rect height="2200" id="artboard" style="fill:white;opacity:1" width="3300" x="0" y="0"/>
  <line id="" style="fill:none;stroke:black;opacity:1;stroke-width:0.5;" x1="263" x2="3036" y1="292" y2="292"/>
  <text style="stroke:none;fill:black;font-family:-apple-system,&quot;SF Pro Display&quot;,&quot;SF Pro Text&quot;,Helvetica,sans-serif;font-weight:bold;" transform="matrix(1 0 0 1 263 322)">Weight/Scale Variations</text>
  <text style="stroke:none;fill:black;font-family:-apple-system,&quot;SF Pro Display&quot;,&quot;SF Pro Text&quot;,Helvetica,sans-serif;text-anchor:middle;" transform="matrix(1 0 0 1 559.711 322)">Ultralight</text>
  <text style="stroke:none;fill:black;font-family:-apple-system,&quot;SF Pro Display&quot;,&quot;SF Pro Text&quot;,Helvetica,sans-serif;text-anchor:middle;" transform="matrix(1 0 0 1 856.422 322)">Thin</text>
  <text style="stroke:none;fill:black;font-family:-apple-system,&quot;SF Pro Display&quot;,&quot;SF Pro Text&quot;,Helvetica,sans-serif;text-anchor:middle;" transform="matrix(1 0 0 1 1153.13 322)">Light</text>
  <text style="stroke:none;fill:black;font-family:-apple-system,&quot;SF Pro Display&quot;,&quot;SF Pro Text&quot;,Helvetica,sans-serif;text-anchor:middle;" transform="matrix(1 0 0 1 1449.84 322)">Regular</text>
  <text style="stroke:none;fill:black;font-family:-apple-system,&quot;SF Pro Display&quot;,&quot;SF Pro Text&quot;,Helvetica,sans-serif;text-anchor:middle;" transform="matrix(1 0 0 1 1746.56 322)">Medium</text>
  <text style="stroke:none;fill:black;font-family:-apple-system,&quot;SF Pro Display&quot;,&quot;SF Pro Text&quot;,Helvetica,sans-serif;text-anchor:middle;" transform="matrix(1 0 0 1 2043.27 322)">Semibold</text>
  <text style="stroke:none;fill:black;font-family:-apple-system,&quot;SF Pro Display&quot;,&quot;SF Pro Text&quot;,Helvetica,sans-serif;text-anchor:middle;" transform="matrix(1 0 0 1 2339.98 322)">Bold</text>
  <text style="stroke:none;fill:black;font-family:-apple-system,&quot;SF Pro Display&quot;,&quot;SF Pro Text&quot;,Helvetica,sans-serif;text-anchor:middle;" transform="matrix(1 0 0 1 2636.69 322)">Heavy</text>
  <text style="stroke:none;fill:black;font-family:-apple-system,&quot;SF Pro Display&quot;,&quot;SF Pro Text&quot;,Helvetica,sans-serif;text-anchor:middle;" transform="matrix(1 0 0 1 2933.4 322)">Black</text>
  <line id="" style="fill:none;stroke:black;opacity:1;stroke-width:0.5;" x1="263" x2="3036" y1="1903" y2="1903"/>
  <g id="" transform="matrix(1 0 0 1 263 1933)">
   <path d="M9.24805 0.830078C13.5547 0.830078 17.1387-2.74414 17.1387-7.05078C17.1387-11.3574 13.5449-14.9316 9.23828-14.9316C4.94141-14.9316 1.36719-11.3574 1.36719-7.05078C1.36719-2.74414 4.95117 0.830078 9.24805 0.830078ZM9.24805-0.654297C5.70312-0.654297 2.87109-3.49609 2.87109-7.05078C2.87109-10.6055 5.69336-13.4473 9.23828-13.4473C12.793-13.4473 15.6348-10.6055 15.6445-7.05078C15.6543-3.49609 12.8027-0.654297 9.24805-0.654297ZM6.39648-6.31836L8.50586-6.31836L8.50586-4.19922C8.50586-3.75977 8.79883-3.45703 9.22852-3.45703C9.67773-3.45703 9.9707-3.75977 9.9707-4.19922L9.9707-6.31836L12.0996-6.31836C12.5391-6.31836 12.8418-6.61133 12.8418-7.04102C12.8418-7.48047 12.5391-7.7832 12.0996-7.7832L9.9707-7.7832L9.9707-9.89258C9.9707-10.3418 9.67773-10.6445 9.22852-10.6445C8.79883-10.6445 8.50586-10.3418 8.50586-9.89258L8.50586-7.7832L6.39648-7.7832C5.94727-7.7832 5.64453-7.48047 5.64453-7.04102C5.64453-6.61133 5.94727-6.31836 6.39648-6.31836Z"/>
  </g>
  <g id="" transform="matrix(1 0 0 1 281.506 1933)">
   <path d="M11.709 2.91016C17.1582 2.91016 21.6699-1.61133 21.6699-7.05078C21.6699-12.5 17.1484-17.0117 11.6992-17.0117C6.25977-17.0117 1.74805-12.5 1.74805-7.05078C1.74805-1.61133 6.26953 2.91016 11.709 2.91016ZM11.709 1.25C7.09961 1.25 3.41797-2.44141 3.41797-7.05078C3.41797-11.6602 7.08984-15.3516 11.6992-15.3516C16.3086-15.3516 20-11.6602 20.0098-7.05078C20.0195-2.44141 16.3184 1.25 11.709 1.25ZM7.98828-6.23047L10.8789-6.23047L10.8789-3.32031C10.8789-2.83203 11.2109-2.5 11.6895-2.5C12.1777-2.5 12.5195-2.83203 12.5195-3.32031L12.5195-6.23047L15.4297-6.23047C15.918-6.23047 16.25-6.5625 16.25-7.04102C16.25-7.5293 15.918-7.87109 15.4297-7.87109L12.5195-7.87109L12.5195-10.7617C12.5195-11.2695 12.1777-11.6016 11.6895-11.6016C11.2109-11.6016 10.8789-11.2598 10.8789-10.7617L10.8789-7.87109L7.98828-7.87109C7.48047-7.87109 7.14844-7.5293 7.14844-7.04102C7.14844-6.5625 7.49023-6.23047 7.98828-6.23047Z"/>
  </g>
  <g id="" transform="matrix(1 0 0 1 304.924 1933)">
   <path d="M14.9707 5.66406C21.9336 5.66406 27.6953-0.0976562 27.6953-7.05078C27.6953-14.0137 21.9238-19.7754 14.9609-19.7754C8.00781-19.7754 2.25586-14.0137 2.25586-7.05078C2.25586-0.0976562 8.01758 5.66406 14.9707 5.66406ZM14.9707 3.84766C8.93555 3.84766 4.08203-1.01562 4.08203-7.05078C4.08203-13.0957 8.92578-17.9492 14.9609-17.9492C21.0059-17.9492 25.8594-13.0957 25.8691-7.05078C25.8789-1.01562 21.0156 3.84766 14.9707 3.84766ZM10.0586-6.14258L14.0625-6.14258L14.0625-2.12891C14.0625-1.5918 14.4336-1.2207 14.9512-1.2207C15.4883-1.2207 15.8594-1.5918 15.8594-2.12891L15.8594-6.14258L19.8828-6.14258C20.4102-6.14258 20.791-6.51367 20.791-7.03125C20.791-7.56836 20.4199-7.94922 19.8828-7.94922L15.8594-7.94922L15.8594-11.9531C15.8594-12.5098 15.4883-12.8809 14.9512-12.8809C14.4336-12.8809 14.0625-12.5 14.0625-11.9531L14.0625-7.94922L10.0586-7.94922C9.50195-7.94922 9.13086-7.56836 9.13086-7.03125C9.13086-6.51367 9.51172-6.14258 10.0586-6.14258Z"/>
  </g>
  <text style="stroke:none;fill:black;font-family:-apple-system,&quot;SF Pro Display&quot;,&quot;SF Pro Text&quot;,Helvetica,sans-serif;font-weight:bold;" transform="matrix(1 0 0 1 263 1953)">Design Variations</text>
  <text style="stroke:none;fill:black;font-family:-apple-system,&quot;SF Pro Display&quot;,&quot;SF Pro Text&quot;,Helvetica,sans-serif;" transform="matrix(1 0 0 1 263 1971)">Symbols are supported in up to nine weights and three scales.</text>
  <text style="stroke:none;fill:black;font-family:-apple-system,&quot;SF Pro Display&quot;,&quot;SF Pro Text&quot;,Helvetica,sans-serif;" transform="matrix(1 0 0 1 263 1989)">For optimal layout with text and other symbols, vertically align</text>
  <text style="stroke:none;fill:black;font-family:-apple-system,&quot;SF Pro Display&quot;,&quot;SF Pro Text&quot;,Helvetica,sans-serif;" transform="matrix(1 0 0 1 263 2007)">symbols with the adjacent text.</text>
  <line id="" style="fill:none;stroke:#00AEEF;stroke-width:0.5;opacity:1.0;" x1="776" x2="776" y1="1919" y2="1933"/>
  <g id="" transform="matrix(1 0 0 1 776 1933)">
   <path d="M3.31055 0.126953C3.82812 0.126953 4.08203-0.0683594 4.26758-0.605469L5.52734-4.0625L11.2891-4.0625L12.5488-0.605469C12.7344-0.0683594 12.9883 0.126953 13.4961 0.126953C14.0137 0.126953 14.3457-0.185547 14.3457-0.673828C14.3457-0.839844 14.3164-0.986328 14.2383-1.20117L9.6582-13.3887C9.43359-13.9941 9.0332-14.2871 8.4082-14.2871C7.80273-14.2871 7.39258-13.9941 7.17773-13.3984L2.59766-1.19141C2.51953-0.976562 2.49023-0.830078 2.49023-0.664062C2.49023-0.175781 2.80273 0.126953 3.31055 0.126953ZM6.00586-5.53711L8.37891-12.1094L8.42773-12.1094L10.8008-5.53711Z"/>
  </g>
  <line id="" style="fill:none;stroke:#00AEEF;stroke-width:0.5;opacity:1.0;" x1="792.836" x2="792.836" y1="1919" y2="1933"/>
  <text style="stroke:none;fill:black;font-family:-apple-system,&quot;SF Pro Display&quot;,&quot;SF Pro Text&quot;,Helvetica,sans-serif;font-weight:bold;" transform="matrix(1 0 0 1 776 1953)">Margins</text>
  <text style="stroke:none;fill:black;font-family:-apple-system,&quot;SF Pro Display&quot;,&quot;SF Pro Text&quot;,Helvetica,sans-serif;" transform="matrix(1 0 0 1 776 1971)">Leading and trailing margins on the left and right side of each symbol</text>
  <text style="stroke:none;fill:black;font-family:-apple-system,&quot;SF Pro Display&quot;,&quot;SF Pro Text&quot;,Helvetica,sans-serif;" transform="matrix(1 0 0 1 776 1989)">can be adjusted by modifying the x-location of the margin guidelines.</text>
  <text style="stroke:none;fill:black;font-family:-apple-system,&quot;SF Pro Display&quot;,&quot;SF Pro Text&quot;,Helvetica,sans-serif;" transform="matrix(1 0 0 1 776 2007)">Modifications are automatically applied proportionally to all</text>
  <text style="stroke:none;fill:black;font-family:-apple-system,&quot;SF Pro Display&quot;,&quot;SF Pro Text&quot;,Helvetica,sans-serif;" transform="matrix(1 0 0 1 776 2025)">scales and weights.</text>
  <g id="" transform="matrix(1 0 0 1 1289 1933)">
   <path d="M2.8418 1.86523L4.54102 3.57422C5.40039 4.44336 6.38672 4.38477 7.31445 3.35938L17.4902-7.85156C17.7539-7.76367 18.0273-7.7832 18.3398-7.8418L19.4043-8.03711L20.0684-7.36328L20.0293-6.80664C19.9902-6.30859 20.1172-5.92773 20.6055-5.44922L21.3672-4.70703C21.8457-4.22852 22.4609-4.19922 22.9297-4.66797L25.8398-7.58789C26.3086-8.05664 26.2891-8.65234 25.8105-9.13086L25.0391-9.89258C24.5605-10.3711 24.1895-10.5273 23.7109-10.4883L23.1348-10.4395L22.4902-11.0742L22.7344-12.1973C22.8613-12.7637 22.7051-13.2031 22.1191-13.7891L19.9219-15.9766C16.582-19.2969 12.1484-19.2188 9.25781-16.3281C8.83789-15.918 8.80859-15.3418 9.04297-14.9512C9.27734-14.5898 9.73633-14.3555 10.3809-14.5215C11.8457-14.8633 13.3691-14.9219 14.7949-13.9844L14.209-12.5293C14.0137-12.0508 13.9844-11.6504 14.1113-11.2891L3.04688-0.898438C2.06055 0.0195312 1.98242 0.996094 2.8418 1.86523ZM10.752-15.957C13.1836-17.7344 16.4746-17.4316 18.7012-15.2051L21.1328-12.793C21.3672-12.5586 21.4062-12.373 21.3379-12.0312L21.0156-10.5469L22.5195-9.0625L23.5059-9.12109C23.7598-9.13086 23.8379-9.11133 24.0332-8.91602L24.6094-8.33984L22.168-5.89844L21.5918-6.47461C21.3965-6.66992 21.3672-6.74805 21.377-7.01172L21.4453-7.98828L19.9512-9.47266L18.4277-9.21875C18.1055-9.15039 17.959-9.17969 17.7148-9.41406L15.7129-11.416C15.459-11.6504 15.4297-11.8164 15.5859-12.1875L16.4648-14.2773C14.9023-15.7324 12.8711-16.3574 10.8398-15.7617C10.6836-15.7227 10.625-15.8496 10.752-15.957ZM5.27344 2.30469L4.10156 1.14258C3.63281 0.683594 3.74023 0.341797 4.14062-0.0195312L14.9512-10.1953L16.416-8.71094L6.42578 2.27539C6.07422 2.67578 5.74219 2.77344 5.27344 2.30469Z"/>
  </g>
  <text style="stroke:none;fill:black;font-family:-apple-system,&quot;SF Pro Display&quot;,&quot;SF Pro Text&quot;,Helvetica,sans-serif;font-weight:bold;" transform="matrix(1 0 0 1 1289 1953)">Exporting</text>
  <text style="stroke:none;fill:black;font-family:-apple-system,&quot;SF Pro Display&quot;,&quot;SF Pro Text&quot;,Helvetica,sans-serif;" transform="matrix(1 0 0 1 1289 1971)">Symbols should be outlined when exporting to ensure the</text>
  <text style="stroke:none;fill:black;font-family:-apple-system,&quot;SF Pro Display&quot;,&quot;SF Pro Text&quot;,Helvetica,sans-serif;" transform="matrix(1 0 0 1 1289 1989)">design is preserved when submitting to Xcode.</text>
  <text id="template-version" style="stroke:none;fill:black;font-family:-apple-system,&quot;SF Pro Display&quot;,&quot;SF Pro Text&quot;,Helvetica,sans-serif;text-anchor:end;" transform="matrix(1 0 0 1 3036 1933)">Template v.2.0</text>
  <text style="stroke:none;fill:black;font-family:-apple-system,&quot;SF Pro Display&quot;,&quot;SF Pro Text&quot;,Helvetica,sans-serif;text-anchor:end;" transform="matrix(1 0 0 1 3036 1951)">Requires Xcode 12 or greater</text>
  <text style="stroke:none;fill:black;font-family:-apple-system,&quot;SF Pro Display&quot;,&quot;SF Pro Text&quot;,Helvetica,sans-serif;text-anchor:end;" transform="matrix(1 0 0 1 3036 1969)">Generated from tray.circle.fill</text>
  <text style="stroke:none;fill:black;font-family:-apple-system,&quot;SF Pro Display&quot;,&quot;SF Pro Text&quot;,Helvetica,sans-serif;text-anchor:end;" transform="matrix(1 0 0 1 3036 1987)">Typeset at 100 points</text>
  <text style="stroke:none;fill:black;font-family:-apple-system,&quot;SF Pro Display&quot;,&quot;SF Pro Text&quot;,Helvetica,sans-serif;" transform="matrix(1 0 0 1 263 726)">Small</text>
  <text style="stroke:none;fill:black;font-family:-apple-system,&quot;SF Pro Display&quot;,&quot;SF Pro Text&quot;,Helvetica,sans-serif;" transform="matrix(1 0 0 1 263 1156)">Medium</text>
  <text style="stroke:none;fill:black;font-family:-apple-system,&quot;SF Pro Display&quot;,&quot;SF Pro Text&quot;,Helvetica,sans-serif;" transform="matrix(1 0 0 1 263 1586)">Large</text>
 </g>
 <g id="Guides">
  <g id="H-reference" style="fill:#27AAE1;stroke:none;" transform="matrix(1 0 0 1 339 696)">
   <path d="M0.976562 0L3.66211 0L12.9883-24.4629L45.752-24.4629L55.127 0L57.7637 0L30.6152-70.459L28.125-70.459ZM29.3457-67.1387L29.4434-67.1387L44.873-26.709L13.8672-26.709Z"/>
  </g>
  <line id="Baseline-S" style="fill:none;stroke:#27AAE1;opacity:1;stroke-width:0.5;" x1="263" x2="3036" y1="696" y2="696"/>
  <line id="Capline-S" style="fill:none;stroke:#27AAE1;opacity:1;stroke-width:0.5;" x1="263" x2="3036" y1="625.541" y2="625.541"/>
  <g id="H-reference" style="fill:#27AAE1;stroke:none;" transform="matrix(1 0 0 1 339 1126)">
   <path d="M0.976562 0L3.66211 0L12.9883-24.4629L45.752-24.4629L55.127 0L57.7637 0L30.6152-70.459L28.125-70.459ZM29.3457-67.1387L29.4434-67.1387L44.873-26.709L13.8672-26.709Z"/>
  </g>
  <line id="Baseline-M" style="fill:none;stroke:#27AAE1;opacity:1;stroke-width:0.5;" x1="263" x2="3036" y1="1126" y2="1126"/>
  <line id="Capline-M" style="fill:none;stroke:#27AAE1;opacity:1;stroke-width:0.5;" x1="263" x2="3036" y1="1055.54" y2="1055.54"/>
  <g id="H-reference" style="fill:#27AAE1;stroke:none;" transform="matrix(1 0 0 1 339 1556)">
   <path d="M0.976562 0L3.66211 0L12.9883-24.4629L45.752-24.4629L55.127 0L57.7637 0L30.6152-70.459L28.125-70.459ZM29.3457-67.1387L29.4434-67.1387L44.873-26.709L13.8672-26.709Z"/>
  </g>
  <line id="Baseline-L" style="fill:none;stroke:#27AAE1;opacity:1;stroke-width:0.5;" x1="263" x2="3036" y1="1556" y2="1556"/>
  <line id="Capline-L" style="fill:none;stroke:#27AAE1;opacity:1;stroke-width:0.5;" x1="263" x2="3036" y1="1485.54" y2="1485.54"/>
  <line id="left-margin" style="fill:none;stroke:#00AEEF;stroke-width:0.5;opacity:1.0;" x1="1391.3" x2="1391.3" y1="1030.79" y2="1150.12"/>
  <line id="right-margin" style="fill:none;stroke:#00AEEF;stroke-width:0.5;opacity:1.0;" x1="1508.39" x2="1508.39" y1="1030.79" y2="1150.12"/>
 </g>
 <g id="Symbols">
  <g id="Black-L" transform="matrix(1 0 0 1 2854.05 1556)">
   <path d="M79.3457 32.9102C116.748 32.9102 147.412 2.29492 147.412-35.1074C147.412-72.5586 116.748-103.174 79.2969-103.174C41.8945-103.174 11.2793-72.5586 11.2793-35.1074C11.2793 2.29492 41.9434 32.9102 79.3457 32.9102ZM53.9062-8.44727C46.4844-8.44727 42.2852-12.5977 42.2852-20.0684L42.2852-38.0371C42.2852-43.3594 42.8711-45.6543 45.459-48.584L54.3945-59.1309C59.0332-64.5508 60.8887-66.4551 66.9434-66.4551L91.6992-66.4551C97.7539-66.4551 99.6094-64.5508 104.297-59.1309L113.232-48.584C115.82-45.6543 116.357-43.3594 116.357-38.0371L116.357-20.0684C116.357-12.5977 112.207-8.44727 104.736-8.44727ZM54.3945-41.2598L68.9941-41.2598C70.9473-41.2598 71.875-39.7949 71.875-38.3301L71.875-37.5C71.875-33.3008 74.707-30.8594 79.3457-30.8594C83.9844-30.8594 86.8652-33.3008 86.8652-37.5L86.8652-38.3301C86.8652-39.7949 87.7441-41.2598 89.6484-41.2598L104.297-41.2598C105.713-41.2598 105.957-42.5781 105.225-43.457L94.3848-56.4941C93.457-57.666 92.3828-58.2031 90.8691-58.2031L67.8223-58.2031C66.3086-58.2031 65.2344-57.666 64.3066-56.4941L53.4668-43.457C52.7344-42.5293 52.9297-41.2598 54.3945-41.2598Z"/>
  </g>
  <g id="Heavy-L" transform="matrix(1 0 0 1 2558.39 1556)">
   <path d="M78.2715 31.8848C115.088 31.8848 145.312 1.66016 145.312-35.1562C145.312-71.9238 115.039-102.148 78.2715-102.148C41.4551-102.148 11.2793-71.9238 11.2793-35.1562C11.2793 1.66016 41.5039 31.8848 78.2715 31.8848ZM52.1973-8.64258C45.0195-8.64258 41.0156-12.5977 41.0156-19.7754L41.0156-37.6953C41.0156-42.3828 41.5527-44.4336 43.8477-47.0703L53.5156-58.9355C57.8613-64.1602 59.7656-65.918 65.6738-65.918L90.8691-65.918C96.7773-65.918 98.6816-64.1602 103.076-58.9355L112.744-47.0703C114.99-44.4336 115.527-42.3828 115.527-37.6953L115.527-19.7754C115.527-12.5977 111.572-8.64258 104.346-8.64258ZM52.1973-40.6738L67.9688-40.6738C69.7754-40.6738 70.7031-39.2578 70.7031-37.8418L70.7031-37.0605C70.7031-32.7637 73.584-30.1758 78.2715-30.1758C82.959-30.1758 85.9375-32.7637 85.9375-37.0605L85.9375-37.8418C85.9375-39.2578 86.7676-40.6738 88.623-40.6738L104.395-40.6738C105.664-40.6738 105.908-41.8457 105.273-42.627L94.1895-56.3477C93.2129-57.6172 92.0898-58.252 90.3809-58.252L66.2109-58.252C64.502-58.252 63.3789-57.666 62.3535-56.3477L51.3184-42.627C50.6348-41.7969 50.8789-40.6738 52.1973-40.6738Z"/>
  </g>
  <g id="Bold-L" transform="matrix(1 0 0 1 2262.88 1556)">
   <path d="M77.0996 30.6641C113.232 30.6641 142.92 0.927734 142.92-35.1562C142.92-71.2891 113.184-100.977 77.0508-100.977C40.9668-100.977 11.2793-71.2891 11.2793-35.1562C11.2793 0.927734 41.0156 30.6641 77.0996 30.6641ZM50.293-8.88672C43.3594-8.88672 39.5996-12.5977 39.5996-19.4824L39.5996-37.3535C39.5996-41.3574 40.1367-43.1152 42.041-45.4102L52.4902-58.6914C56.543-63.7695 58.5449-65.2832 64.209-65.2832L89.9902-65.2832C95.6543-65.2832 97.6074-63.7695 101.709-58.6914L112.158-45.4102C114.062-43.1152 114.551-41.3574 114.551-37.3535L114.551-19.4824C114.551-12.5977 110.889-8.88672 103.906-8.88672ZM49.7559-39.9902L66.7969-39.9902C68.5059-39.9902 69.3848-38.6719 69.3848-37.3047L69.3848-36.5723C69.3848-32.1289 72.3633-29.3945 77.0996-29.3945C81.8359-29.3945 84.9121-32.1289 84.9121-36.5723L84.9121-37.3047C84.9121-38.6719 85.6934-39.9902 87.4023-39.9902L104.492-39.9902C105.664-39.9902 105.859-41.0156 105.322-41.748L94.043-56.1523C92.9199-57.6172 91.748-58.3008 89.7949-58.3008L64.4531-58.3008C62.5-58.3008 61.3281-57.666 60.1562-56.1523L48.9258-41.748C48.3398-40.9668 48.5352-39.9902 49.7559-39.9902Z"/>
  </g>
  <g id="Semibold-L" transform="matrix(1 0 0 1 1966.97 1556)">
   <path d="M76.2695 29.834C111.914 29.834 141.309 0.439453 141.309-35.1562C141.309-70.8008 111.865-100.195 76.2695-100.195C40.625-100.195 11.2793-70.8008 11.2793-35.1562C11.2793 0.439453 40.6738 29.834 76.2695 29.834ZM48.9746-9.0332C42.2363-9.0332 38.623-12.5977 38.623-19.2871L38.623-37.1094C38.623-40.625 39.1113-42.1875 40.8203-44.2383L51.8066-58.5449C55.6152-63.4766 57.666-64.8438 63.2324-64.8438L89.3555-64.8438C94.9219-64.8438 96.9238-63.4766 100.781-58.5449L111.768-44.2383C113.428-42.1875 113.916-40.625 113.916-37.1094L113.916-19.2871C113.916-12.5977 110.4-9.0332 103.564-9.0332ZM48.0469-39.502L65.9668-39.502C67.627-39.502 68.457-38.2324 68.457-36.9629L68.457-36.2305C68.457-31.6895 71.5332-28.8574 76.2695-28.8574C81.0547-28.8574 84.1797-31.6895 84.1797-36.2305L84.1797-36.9629C84.1797-38.2324 84.9609-39.502 86.6211-39.502L104.541-39.502C105.615-39.502 105.859-40.4785 105.371-41.1133L93.8965-56.0059C92.7246-57.6172 91.5039-58.3008 89.4043-58.3008L63.2324-58.3008C61.1328-58.3008 59.8633-57.666 58.6914-56.0059L47.2656-41.1133C46.7285-40.3809 46.9238-39.502 48.0469-39.502Z"/>
  </g>
  <g id="Medium-L" transform="matrix(1 0 0 1 1670.87 1556)">
   <path d="M75.6836 29.1992C110.938 29.1992 140.088 0.0976562 140.088-35.1562C140.088-70.459 110.889-99.5605 75.6348-99.5605C40.3809-99.5605 11.2793-70.459 11.2793-35.1562C11.2793 0.0976562 40.3809 29.1992 75.6836 29.1992ZM47.998-9.13086C41.3574-9.13086 37.8906-12.5977 37.8906-19.1406L37.8906-36.9141C37.8906-40.0879 38.3789-41.4551 39.8438-43.3594L51.2695-58.4473C54.9316-63.2324 56.9824-64.5508 62.4512-64.5508L88.8672-64.5508C94.3359-64.5508 96.3379-63.2324 100.049-58.4473L111.475-43.3594C112.988-41.4551 113.428-40.0879 113.428-36.9141L113.428-19.1406C113.428-12.5977 110.01-9.13086 103.369-9.13086ZM46.7285-39.1602L65.3809-39.1602C66.9434-39.1602 67.7734-37.9395 67.7734-36.6699L67.7734-35.9863C67.7734-31.3477 70.8984-28.418 75.6836-28.418C80.4199-28.418 83.6426-31.3477 83.6426-35.9863L83.6426-36.6699C83.6426-37.9395 84.375-39.1602 85.9863-39.1602L104.59-39.1602C105.615-39.1602 105.811-40.0391 105.371-40.625L93.7988-55.9082C92.5781-57.6172 91.3086-58.3496 89.1113-58.3496L62.3047-58.3496C60.0586-58.3496 58.7891-57.666 57.5195-55.9082L46.0449-40.625C45.5566-39.9414 45.752-39.1602 46.7285-39.1602Z"/>
  </g>
  <g id="Regular-L" transform="matrix(1 0 0 1 1374.97 1556)">
   <path d="M74.8535 28.418C109.668 28.418 138.477-0.390625 138.477-35.2051C138.477-69.9707 109.619-98.7793 74.8047-98.7793C40.0391-98.7793 11.2793-69.9707 11.2793-35.2051C11.2793-0.390625 40.0879 28.418 74.8535 28.418ZM46.6797-9.32617C40.2344-9.32617 36.9629-12.5977 36.9629-18.9453L36.9629-36.6699C36.9629-39.3555 37.4023-40.5273 38.623-42.2363L50.5859-58.252C54.0527-62.9395 56.1523-64.1113 61.4746-64.1113L88.2324-64.1113C93.5547-64.1113 95.6055-62.9395 99.1211-58.252L111.084-42.2363C112.354-40.5273 112.793-39.3555 112.793-36.6699L112.793-18.9453C112.793-12.6465 109.521-9.32617 103.027-9.32617ZM45.0684-38.6719L64.5508-38.6719C66.0645-38.6719 66.8945-37.5 66.8945-36.3281L66.8945-35.6445C66.8945-30.957 70.0684-27.8809 74.8535-27.8809C79.6875-27.8809 82.959-30.957 82.959-35.6445L82.959-36.3281C82.959-37.5 83.6426-38.6719 85.1562-38.6719L104.688-38.6719C105.566-38.6719 105.811-39.502 105.42-39.9902L93.7012-55.8105C92.3828-57.5684 91.0645-58.3984 88.7207-58.3984L61.084-58.3984C58.6914-58.3984 57.373-57.6172 56.0547-55.8105L44.3848-39.9902C43.9453-39.4043 44.1406-38.6719 45.0684-38.6719Z"/>
  </g>
  <g id="Light-L" transform="matrix(1 0 0 1 1079.18 1556)">
   <path d="M73.9258 27.4902C108.301 27.4902 136.621-0.830078 136.621-35.2051C136.621-69.5312 108.252-97.8516 73.9258-97.8516C39.5508-97.8516 11.2793-69.5312 11.2793-35.2051C11.2793-0.830078 39.5996 27.4902 73.9258 27.4902ZM45.4102-9.91211C39.3066-9.91211 36.1816-13.0859 36.1816-19.0918L36.1816-36.6699C36.1816-38.9648 36.5723-39.9902 37.6465-41.4062L50.3418-58.252C53.418-62.3535 55.3223-63.3789 60.2051-63.3789L87.6465-63.3789C92.5293-63.3789 94.4336-62.3535 97.5098-58.252L110.254-41.4062C111.328-39.9902 111.67-38.9648 111.67-36.6699L111.67-19.0918C111.67-13.1348 108.594-9.91211 102.441-9.91211ZM42.9199-38.5254L63.5742-38.5254C64.8438-38.5254 65.5273-37.5977 65.5273-36.5723L65.5273-36.0352C65.5273-31.1035 68.9941-27.6855 73.9258-27.6855C78.8574-27.6855 82.4219-31.1035 82.4219-36.0352L82.4219-36.5723C82.4219-37.5977 83.0078-38.5254 84.2773-38.5254L104.98-38.5254C105.713-38.5254 105.908-39.1602 105.566-39.5996L93.2617-56.0547C91.8945-57.9102 90.7227-58.7402 88.1836-58.7402L59.7168-58.7402C57.2266-58.7402 56.0059-57.959 54.6387-56.0547L42.3828-39.5996C42.041-39.1113 42.1875-38.5254 42.9199-38.5254Z"/>
  </g>
  <g id="Thin-L" transform="matrix(1 0 0 1 783.693 1556)">
   <path d="M72.7051 26.2695C106.494 26.2695 134.18-1.41602 134.18-35.2051C134.18-68.9453 106.494-96.6309 72.7051-96.6309C38.9648-96.6309 11.2793-68.9453 11.2793-35.2051C11.2793-1.41602 38.9648 26.2695 72.7051 26.2695ZM43.75-10.7422C38.1348-10.7422 35.2051-13.7207 35.2051-19.2871L35.2051-36.7188C35.2051-38.4766 35.4492-39.2578 36.3281-40.3809L50.0488-58.252C52.5879-61.5234 54.248-62.4023 58.5449-62.4023L86.9141-62.4023C91.1621-62.4023 92.8223-61.5234 95.4102-58.252L109.131-40.3809C109.961-39.2578 110.254-38.4766 110.254-36.7188L110.254-19.2871C110.254-13.7695 107.324-10.7422 101.709-10.7422ZM40.0879-38.3789L62.3047-38.3789C63.2324-38.3789 63.7207-37.7441 63.7207-36.8652L63.7207-36.5723C63.7207-31.2988 67.627-27.4414 72.7051-27.4414C77.832-27.4414 81.7383-31.2988 81.7383-36.5723L81.7383-36.8652C81.7383-37.7441 82.1777-38.3789 83.1543-38.3789L105.42-38.3789C105.859-38.3789 106.055-38.7695 105.811-39.1113L92.6758-56.3965C91.2109-58.3008 90.2344-59.1797 87.4512-59.1797L57.959-59.1797C55.2246-59.1797 54.1992-58.3496 52.7832-56.3965L39.7461-39.1113C39.4531-38.7207 39.5508-38.3789 40.0879-38.3789Z"/>
  </g>
  <g id="Ultralight-L" transform="matrix(1 0 0 1 487.616 1556)">
   <path d="M72.1191 25.6348C105.566 25.6348 132.91-1.70898 132.91-35.2051C132.91-68.6523 105.566-95.9961 72.1191-95.9961C38.623-95.9961 11.2793-68.6523 11.2793-35.2051C11.2793-1.70898 38.623 25.6348 72.1191 25.6348ZM42.8711-11.1816C37.5-11.1816 34.668-14.0137 34.668-19.3848L34.668-36.7188C34.668-38.1836 34.8633-38.8672 35.6445-39.8438L49.8535-58.252C52.1484-61.1328 53.7109-61.8652 57.666-61.8652L86.5234-61.8652C90.4785-61.8652 92.041-61.1328 94.2871-58.252L108.545-39.8438C109.277-38.8672 109.521-38.1836 109.521-36.7188L109.521-19.3848C109.521-14.1113 106.641-11.1816 101.318-11.1816ZM38.623-38.2812L61.6211-38.2812C62.4023-38.2812 62.793-37.793 62.793-37.0605L62.793-36.8652C62.793-31.3965 66.8945-27.3438 72.0703-27.3438C77.2949-27.3438 81.3965-31.3965 81.3965-36.8652L81.3965-37.0605C81.3965-37.793 81.7383-38.2812 82.5684-38.2812L105.615-38.2812C105.957-38.2812 106.104-38.5254 105.908-38.8184L92.334-56.5918C90.8691-58.5449 89.9414-59.4238 87.1094-59.4238L57.0801-59.4238C54.1992-59.4238 53.2715-58.5449 51.8066-56.5918L38.3789-38.8184C38.1348-38.5742 38.2324-38.2812 38.623-38.2812Z"/>
  </g>
  <g id="Black-M" transform="matrix(1 0 0 1 2870.97 1126)">
   <path d="M62.4023 18.5547C91.9922 18.5547 116.113-5.56641 116.113-35.1562C116.113-64.7461 91.9922-88.8184 62.4023-88.8184C32.8125-88.8184 8.74023-64.7461 8.74023-35.1562C8.74023-5.56641 32.8125 18.5547 62.4023 18.5547ZM43.4082-14.502C37.5488-14.502 34.082-17.9688 34.082-23.877L34.082-37.8418C34.082-42.5781 34.5215-44.6777 36.8652-47.168L43.2129-54.0527C46.9727-58.1543 48.291-59.7656 52.9785-59.7656L71.875-59.7656C76.5625-59.7656 77.832-58.1543 81.5918-54.0527L87.9883-47.168C90.332-44.6777 90.7227-42.5781 90.7227-37.8418L90.7227-23.877C90.7227-17.9688 87.3047-14.502 81.4453-14.502ZM43.9941-40.6738L54.3945-40.6738C55.8594-40.6738 56.543-39.5508 56.543-38.3789L56.543-37.8418C56.543-34.5703 58.7891-32.7148 62.4023-32.7148C66.0156-32.7148 68.2617-34.5703 68.2617-37.8418L68.2617-38.3789C68.2617-39.5508 68.9453-40.6738 70.459-40.6738L80.8594-40.6738C82.0312-40.6738 82.2266-41.748 81.5918-42.4805L73.1445-52.0508C72.5098-52.7832 71.8262-53.1738 70.8496-53.1738L54.0039-53.1738C52.9785-53.1738 52.3438-52.7832 51.709-52.0508L43.2129-42.4805C42.627-41.748 42.7734-40.6738 43.9941-40.6738Z"/>
  </g>
  <g id="Heavy-M" transform="matrix(1 0 0 1 2575.19 1126)">
   <path d="M61.5234 17.627C90.5273 17.627 114.258-6.10352 114.258-35.1562C114.258-64.1602 90.5273-87.8906 61.4746-87.8906C32.4707-87.8906 8.74023-64.1602 8.74023-35.1562C8.74023-6.10352 32.4707 17.627 61.5234 17.627ZM41.8945-14.5508C36.1816-14.5508 32.9102-17.8223 32.9102-23.584L32.9102-37.5C32.9102-41.6504 33.3496-43.457 35.3516-45.752L42.334-53.8086C45.8496-57.9102 47.2656-59.375 51.8555-59.375L71.1426-59.375C75.7324-59.375 77.1484-57.9102 80.7129-53.8086L87.6465-45.752C89.6973-43.457 90.0879-41.6504 90.0879-37.5L90.0879-23.584C90.0879-17.8223 86.8652-14.5508 81.1523-14.5508ZM42.1387-40.0391L53.4668-40.0391C54.9316-40.0391 55.6152-38.9648 55.6152-37.793L55.6152-37.207C55.6152-33.9355 57.8613-31.9824 61.5234-31.9824C65.1367-31.9824 67.3828-33.9355 67.3828-37.207L67.3828-37.793C67.3828-38.9648 68.0664-40.0391 69.5312-40.0391L80.8594-40.0391C81.9824-40.0391 82.1777-41.0156 81.5918-41.6992L73.0469-51.8066C72.3633-52.6855 71.582-53.125 70.4102-53.125L52.5879-53.125C51.416-53.125 50.6836-52.6855 49.9512-51.8066L41.4062-41.6992C40.8691-41.0156 41.0156-40.0391 42.1387-40.0391Z"/>
  </g>
  <g id="Bold-M" transform="matrix(1 0 0 1 2279.5 1126)">
   <path d="M60.498 16.5527C88.8672 16.5527 112.207-6.73828 112.207-35.1562C112.207-63.5742 88.8672-86.9141 60.4492-86.9141C32.0312-86.9141 8.74023-63.5742 8.74023-35.1562C8.74023-6.73828 32.0801 16.5527 60.498 16.5527ZM40.1367-14.6484C34.6191-14.6484 31.5918-17.6758 31.5918-23.1934L31.5918-37.1094C31.5918-40.625 31.9824-42.1387 33.6914-44.1406L41.3086-53.5645C44.6289-57.6172 46.1426-58.8867 50.6836-58.8867L70.3125-58.8867C74.8535-58.8867 76.3184-57.6172 79.6875-53.5645L87.3047-44.1406C88.9648-42.1387 89.4043-40.625 89.4043-37.1094L89.4043-23.1934C89.4043-17.6758 86.377-14.6484 80.8105-14.6484ZM40.0879-39.3066L52.4902-39.3066C53.9062-39.3066 54.5898-38.2324 54.5898-37.1582L54.5898-36.5723C54.5898-33.2031 56.8359-31.2012 60.498-31.2012C64.1113-31.2012 66.4062-33.2031 66.4062-36.5723L66.4062-37.1582C66.4062-38.2324 67.0898-39.3066 68.5059-39.3066L80.9082-39.3066C81.8848-39.3066 82.0801-40.2344 81.5918-40.8203L72.998-51.5625C72.2168-52.5879 71.3379-53.0762 69.9707-53.0762L51.0254-53.0762C49.6582-53.0762 48.7793-52.5879 47.998-51.5625L39.4043-40.8203C38.916-40.1855 39.0625-39.3066 40.0879-39.3066Z"/>
  </g>
  <g id="Semibold-M" transform="matrix(1 0 0 1 1983.5 1126)">
   <path d="M59.7656 15.8691C87.7441 15.8691 110.791-7.22656 110.791-35.1562C110.791-63.1348 87.6953-86.2305 59.7656-86.2305C31.7871-86.2305 8.74023-63.1348 8.74023-35.1562C8.74023-7.22656 31.7871 15.8691 59.7656 15.8691ZM38.9648-14.6973C33.5449-14.6973 30.6641-17.5781 30.6641-22.9492L30.6641-36.8164C30.6641-39.8926 31.0547-41.2598 32.5195-43.0176L40.5762-53.3691C43.75-57.4219 45.3613-58.5938 49.8535-58.5938L69.7266-58.5938C74.2188-58.5938 75.7812-57.4219 78.9551-53.3691L87.0117-43.0176C88.4766-41.2598 88.916-39.8926 88.916-36.8164L88.916-22.9492C88.916-17.5781 86.0352-14.6973 80.5664-14.6973ZM38.623-38.8184L51.8066-38.8184C53.1738-38.8184 53.8574-37.793 53.8574-36.7188L53.8574-36.084C53.8574-32.7148 56.1523-30.6152 59.7656-30.6152C63.4277-30.6152 65.7715-32.7148 65.7715-36.084L65.7715-36.7188C65.7715-37.793 66.4062-38.8184 67.7734-38.8184L80.9082-38.8184C81.8359-38.8184 82.0312-39.6973 81.5918-40.2344L72.9492-51.3672C72.0703-52.4902 71.1426-53.0273 69.6289-53.0273L49.9512-53.0273C48.4863-53.0273 47.5098-52.5391 46.6309-51.3672L37.9883-40.2344C37.5488-39.5996 37.6953-38.8184 38.623-38.8184Z"/>
  </g>
  <g id="Medium-M" transform="matrix(1 0 0 1 1687.3 1126)">
   <path d="M59.2285 15.332C86.9141 15.332 109.766-7.51953 109.766-35.2051C109.766-62.8418 86.8652-85.6934 59.1797-85.6934C31.543-85.6934 8.74023-62.8418 8.74023-35.2051C8.74023-7.51953 31.5918 15.332 59.2285 15.332ZM38.0859-14.7461C32.7637-14.7461 29.9805-17.5293 29.9805-22.7539L29.9805-36.6211C29.9805-39.3555 30.3711-40.5762 31.6406-42.1875L40.0391-53.2715C43.1152-57.2754 44.7754-58.3496 49.2188-58.3496L69.2871-58.3496C73.7305-58.3496 75.3418-57.2754 78.418-53.2715L86.8164-42.1875C88.1348-40.5762 88.5254-39.3555 88.5254-36.6211L88.5254-22.7539C88.5254-17.5293 85.791-14.7461 80.4199-14.7461ZM37.5488-38.4766L51.2695-38.4766C52.6367-38.4766 53.3203-37.4023 53.3203-36.377L53.3203-35.7422C53.3203-32.3242 55.6152-30.1758 59.2285-30.1758C62.8906-30.1758 65.2344-32.3242 65.2344-35.7422L65.2344-36.377C65.2344-37.4023 65.8691-38.4766 67.2363-38.4766L80.957-38.4766C81.7871-38.4766 81.9824-39.2578 81.5918-39.7461L72.9004-51.2207C72.0215-52.4414 70.9961-52.9785 69.3848-52.9785L49.1699-52.9785C47.5586-52.9785 46.5332-52.4902 45.6055-51.2207L36.9629-39.7461C36.5234-39.1602 36.6699-38.4766 37.5488-38.4766Z"/>
  </g>
  <g id="Regular-M" transform="matrix(1 0 0 1 1391.3 1126)">
   <path d="M58.5449 14.5996C85.791 14.5996 108.35-7.95898 108.35-35.2051C108.35-62.4023 85.7422-85.0098 58.4961-85.0098C31.2988-85.0098 8.74023-62.4023 8.74023-35.2051C8.74023-7.95898 31.3477 14.5996 58.5449 14.5996ZM36.9141-14.7949C31.6895-14.7949 29.0527-17.4316 29.0527-22.5098L29.0527-36.3281C29.0527-38.6719 29.4434-39.6484 30.5176-41.1133L39.3555-53.0762C42.2363-57.0801 43.9941-58.0078 48.3887-58.0078L68.7012-58.0078C73.0957-58.0078 74.8047-57.0801 77.7344-53.0762L86.5723-41.1133C87.6465-39.6484 88.0371-38.6719 88.0371-36.3281L88.0371-22.5098C88.0371-17.4316 85.4492-14.7949 80.1758-14.7949ZM36.1328-37.9883L50.5859-37.9883C51.9043-37.9883 52.6367-36.9629 52.6367-35.9375L52.6367-35.3027C52.6367-31.8359 54.8828-29.6387 58.5449-29.6387C62.207-29.6387 64.5996-31.8359 64.5996-35.3027L64.5996-35.9375C64.5996-36.9629 65.1855-37.9883 66.5039-37.9883L80.957-37.9883C81.7383-37.9883 81.9336-38.7207 81.5918-39.1602L72.8516-51.0254C71.875-52.3926 70.8008-52.9785 69.043-52.9785L48.0957-52.9785C46.3379-52.9785 45.2637-52.4414 44.2383-51.0254L35.5469-39.1602C35.2051-38.623 35.3516-37.9883 36.1328-37.9883Z"/>
  </g>
  <g id="Light-M" transform="matrix(1 0 0 1 1095.42 1126)">
   <path d="M57.7148 13.7695C84.5215 13.7695 106.689-8.34961 106.689-35.2051C106.689-62.0117 84.5215-84.1797 57.666-84.1797C30.8594-84.1797 8.74023-62.0117 8.74023-35.2051C8.74023-8.34961 30.9082 13.7695 57.7148 13.7695ZM35.791-15.332C30.9082-15.332 28.3691-17.8223 28.3691-22.6562L28.3691-36.3281C28.3691-38.3301 28.7109-39.1602 29.6387-40.3809L39.1602-53.0762C41.6992-56.4941 43.2617-57.373 47.2168-57.373L68.2129-57.373C72.168-57.373 73.7305-56.4941 76.3184-53.0762L85.8398-40.3809C86.7188-39.1602 87.0605-38.3301 87.0605-36.3281L87.0605-22.6562C87.0605-17.8711 84.5703-15.332 79.6875-15.332ZM34.2285-37.8418L49.707-37.8418C50.8301-37.8418 51.3672-37.0117 51.3672-36.1328L51.3672-35.6934C51.3672-31.9336 53.9551-29.4922 57.7148-29.4922C61.4746-29.4922 64.1113-31.9336 64.1113-35.6934L64.1113-36.1328C64.1113-37.0117 64.5996-37.8418 65.7227-37.8418L81.25-37.8418C81.8848-37.8418 82.0312-38.4277 81.7383-38.8184L72.4609-51.2695C71.4355-52.6855 70.459-53.2715 68.5547-53.2715L46.9238-53.2715C45.0195-53.2715 44.043-52.6855 42.9688-51.2695L33.7402-38.8184C33.4473-38.3789 33.5449-37.8418 34.2285-37.8418Z"/>
  </g>
  <g id="Thin-M" transform="matrix(1 0 0 1 799.806 1126)">
   <path d="M56.6406 12.6953C82.9102 12.6953 104.492-8.88672 104.492-35.2051C104.492-61.4746 82.9102-83.0566 56.5918-83.0566C30.3223-83.0566 8.74023-61.4746 8.74023-35.2051C8.74023-8.88672 30.3223 12.6953 56.6406 12.6953ZM34.2773-16.0645C29.834-16.0645 27.4902-18.4082 27.4902-22.8516L27.4902-36.377C27.4902-37.8418 27.7344-38.4766 28.418-39.4531L38.8672-53.0762C40.918-55.8105 42.2852-56.4941 45.7031-56.4941L67.5293-56.4941C70.9473-56.4941 72.3145-55.8105 74.4141-53.0762L84.8145-39.4531C85.5469-38.4766 85.7422-37.8418 85.7422-36.377L85.7422-22.8516C85.7422-18.457 83.4473-16.0645 79.0039-16.0645ZM31.6895-37.6953L48.5352-37.6953C49.3652-37.6953 49.7559-37.1582 49.7559-36.4258L49.7559-36.1328C49.7559-32.1289 52.6855-29.248 56.6406-29.248C60.5469-29.248 63.5254-32.1289 63.5254-36.1328L63.5254-36.4258C63.5254-37.1582 63.8672-37.6953 64.6973-37.6953L81.5918-37.6953C82.0312-37.6953 82.1777-38.0371 81.9336-38.3301L71.9238-51.5625C70.8496-53.0273 70.0195-53.7109 67.9199-53.7109L45.3125-53.7109C43.2129-53.7109 42.4316-53.0273 41.3086-51.5625L31.3477-38.3301C31.1523-38.0371 31.2012-37.6953 31.6895-37.6953Z"/>
  </g>
  <g id="Ultralight-M" transform="matrix(1 0 0 1 503.656 1126)">
   <path d="M56.0547 12.1094C82.0801 12.1094 103.369-9.17969 103.369-35.2051C103.369-61.2305 82.0801-82.5195 56.0547-82.5195C30.0293-82.5195 8.74023-61.2305 8.74023-35.2051C8.74023-9.17969 30.0293 12.1094 56.0547 12.1094ZM33.4961-16.4551C29.248-16.4551 27.0508-18.7012 27.0508-22.9492L27.0508-36.377C27.0508-37.5977 27.1973-38.1836 27.832-38.9648L38.7207-53.0762C40.5762-55.4199 41.7969-56.0547 44.9707-56.0547L67.1875-56.0547C70.3125-56.0547 71.582-55.4199 73.4375-53.0762L84.2773-38.9648C84.9121-38.1836 85.1074-37.5977 85.1074-36.377L85.1074-22.9492C85.1074-18.75 82.8613-16.4551 78.6621-16.4551ZM30.3711-37.6465L47.9492-37.6465C48.6328-37.6465 48.9258-37.207 48.9258-36.5723L48.9258-36.4258C48.9258-32.2266 52.0508-29.1504 56.0547-29.1504C60.0586-29.1504 63.1836-32.2266 63.1836-36.4258L63.1836-36.5723C63.1836-37.207 63.4766-37.6465 64.1602-37.6465L81.7871-37.6465C82.1289-37.6465 82.2266-37.8418 82.0312-38.0859L71.6797-51.709C70.5566-53.2227 69.8242-53.9062 67.627-53.9062L44.5312-53.9062C42.334-53.9062 41.6016-53.2227 40.4785-51.709L30.127-38.0859C29.9805-37.8418 30.0293-37.6465 30.3711-37.6465Z"/>
  </g>
  <g id="Black-S" transform="matrix(1 0 0 1 2884.57 696)">
   <path d="M48.8281 6.83594C71.9727 6.83594 90.8203-12.0117 90.8203-35.1562C90.8203-58.3008 71.9727-77.1484 48.8281-77.1484C25.6836-77.1484 6.83594-58.3008 6.83594-35.1562C6.83594-12.0117 25.6836 6.83594 48.8281 6.83594ZM33.8867-18.9941C29.2969-18.9941 26.6113-21.6797 26.6113-26.3184L26.6113-37.2559C26.6113-40.918 26.9531-42.5293 28.7598-44.4824L33.7891-49.9512C36.7188-53.1738 37.7441-54.4434 41.4062-54.4434L56.25-54.4434C59.9121-54.4434 60.9375-53.1738 63.8672-49.9512L68.8965-44.4824C70.7031-42.5293 71.0449-40.918 71.0449-37.2559L71.0449-26.3184C71.0449-21.6797 68.3594-18.9941 63.7695-18.9941ZM34.3262-39.4531L42.5293-39.4531C43.7012-39.4531 44.2383-38.5742 44.2383-37.6465L44.2383-37.207C44.2383-34.668 45.9961-33.2031 48.8281-33.2031C51.6602-33.2031 53.418-34.668 53.418-37.207L53.418-37.6465C53.418-38.5742 53.9551-39.4531 55.127-39.4531L63.3301-39.4531C64.2578-39.4531 64.4043-40.2832 63.916-40.8691L57.2754-48.3887C56.7871-48.9746 56.25-49.2676 55.4688-49.2676L42.1875-49.2676C41.4062-49.2676 40.8691-48.9746 40.3809-48.3887L33.7402-40.8691C33.252-40.2832 33.3984-39.4531 34.3262-39.4531Z"/>
  </g>
  <g id="Heavy-S" transform="matrix(1 0 0 1 2588.47 696)">
   <path d="M48.2422 6.20117C70.9961 6.20117 89.5996-12.4023 89.5996-35.1562C89.5996-57.9102 70.9961-76.5625 48.1934-76.5625C25.4395-76.5625 6.83594-57.9102 6.83594-35.1562C6.83594-12.4023 25.4395 6.20117 48.2422 6.20117ZM32.8613-18.9941C28.3203-18.9941 25.7812-21.5332 25.7812-26.0742L25.7812-36.9629C25.7812-40.2344 26.123-41.6992 27.7344-43.457L33.1055-49.7559C35.9375-53.0273 37.0605-54.1992 40.7227-54.1992L55.7129-54.1992C59.375-54.1992 60.498-53.0273 63.3301-49.7559L68.75-43.457C70.3125-41.6992 70.6543-40.2344 70.6543-36.9629L70.6543-26.0742C70.6543-21.5332 68.1152-18.9941 63.623-18.9941ZM33.1055-38.9648L41.9434-38.9648C43.1152-38.9648 43.6523-38.0859 43.6523-37.1582L43.6523-36.7188C43.6523-34.1309 45.4102-32.666 48.2422-32.666C51.0254-32.666 52.7832-34.1309 52.7832-36.7188L52.7832-37.1582C52.7832-38.0859 53.3203-38.9648 54.4922-38.9648L63.3301-38.9648C64.209-38.9648 64.3555-39.7461 63.916-40.2832L57.2754-48.1934C56.7383-48.877 56.1035-49.2188 55.1758-49.2188L41.2598-49.2188C40.332-49.2188 39.7461-48.877 39.1602-48.1934L32.5684-40.2832C32.1289-39.7461 32.2266-38.9648 33.1055-38.9648Z"/>
  </g>
  <g id="Bold-S" transform="matrix(1 0 0 1 2292.44 696)">
   <path d="M47.5586 5.51758C69.873 5.51758 88.2324-12.8418 88.2324-35.2051C88.2324-57.5195 69.873-75.8789 47.5098-75.8789C25.1953-75.8789 6.83594-57.5195 6.83594-35.2051C6.83594-12.8418 25.1953 5.51758 47.5586 5.51758ZM31.6895-18.9453C27.2461-18.9453 24.8535-21.3867 24.8535-25.7812L24.8535-36.6699C24.8535-39.502 25.1953-40.7227 26.5625-42.334L32.373-49.6094C35.0586-52.8809 36.2793-53.9062 39.9414-53.9062L55.1758-53.9062C58.8379-53.9062 60.0098-52.8809 62.7441-49.6094L68.5547-42.334C69.9219-40.7227 70.2148-39.502 70.2148-36.6699L70.2148-25.7812C70.2148-21.3867 67.8711-18.9453 63.4277-18.9453ZM31.7871-38.4277L41.3086-38.4277C42.4316-38.4277 43.0176-37.5488 43.0176-36.6699L43.0176-36.1816C43.0176-33.5938 44.7266-32.0801 47.5586-32.0801C50.3418-32.0801 52.0996-33.5938 52.0996-36.1816L52.0996-36.6699C52.0996-37.5488 52.6367-38.4277 53.8086-38.4277L63.2812-38.4277C64.1113-38.4277 64.2578-39.209 63.8672-39.6484L57.2754-47.9492C56.6406-48.7305 55.9082-49.1211 54.8828-49.1211L40.2344-49.1211C39.1602-49.1211 38.4766-48.7793 37.8418-47.9492L31.25-39.6484C30.8105-39.1602 30.957-38.4277 31.7871-38.4277Z"/>
  </g>
  <g id="Semibold-S" transform="matrix(1 0 0 1 1996.2 696)">
   <path d="M47.0703 5.0293C69.0918 5.0293 87.3047-13.1348 87.3047-35.2051C87.3047-57.2266 69.0918-75.4395 47.0215-75.4395C25-75.4395 6.83594-57.2266 6.83594-35.2051C6.83594-13.1348 25.0488 5.0293 47.0703 5.0293ZM30.8594-18.9453C26.5137-18.9453 24.2188-21.2402 24.2188-25.5859L24.2188-36.4746C24.2188-38.9648 24.5605-40.0879 25.7324-41.5527L31.8359-49.4629C34.4238-52.7832 35.7422-53.7598 39.4043-53.7598L54.7852-53.7598C58.3984-53.7598 59.668-52.7832 62.3047-49.4629L68.4082-41.5527C69.6289-40.0879 69.9219-38.9648 69.9219-36.4746L69.9219-25.5859C69.9219-21.2402 67.6758-18.9453 63.2812-18.9453ZM30.8594-38.0859L40.8203-38.0859C41.9922-38.0859 42.5781-37.207 42.5781-36.3281L42.5781-35.791C42.5781-33.2031 44.2871-31.6406 47.0703-31.6406C49.9023-31.6406 51.6602-33.2031 51.6602-35.791L51.6602-36.3281C51.6602-37.207 52.1484-38.0859 53.3203-38.0859L63.2812-38.0859C64.0625-38.0859 64.209-38.7695 63.8672-39.2578L57.2754-47.8027C56.5918-48.6816 55.8105-49.0723 54.6875-49.0723L39.502-49.0723C38.3789-49.0723 37.5977-48.6816 36.8652-47.8027L30.3223-39.2578C29.9316-38.7207 30.0781-38.0859 30.8594-38.0859Z"/>
  </g>
  <g id="Medium-S" transform="matrix(1 0 0 1 1699.83 696)">
   <path d="M46.7285 4.6875C68.5547 4.6875 86.6211-13.3789 86.6211-35.2051C86.6211-57.0312 68.5059-75.0977 46.6797-75.0977C24.8535-75.0977 6.83594-57.0312 6.83594-35.2051C6.83594-13.3789 24.9023 4.6875 46.7285 4.6875ZM30.2734-18.9453C25.9277-18.9453 23.7305-21.1914 23.7305-25.3906L23.7305-36.2793C23.7305-38.5742 24.0723-39.5996 25.1465-40.9668L31.4453-49.3652C33.9844-52.6855 35.3516-53.6133 38.9648-53.6133L54.4434-53.6133C58.1055-53.6133 59.4238-52.6855 62.0117-49.3652L68.3105-40.9668C69.3848-39.5996 69.7266-38.5742 69.7266-36.2793L69.7266-25.3906C69.7266-21.1914 67.5293-18.9453 63.1836-18.9453ZM30.1758-37.793L40.4785-37.793C41.6504-37.793 42.2363-36.9141 42.2363-36.0352L42.2363-35.498C42.2363-32.8613 43.8965-31.3477 46.7285-31.3477C49.5117-31.3477 51.2695-32.8613 51.2695-35.498L51.2695-36.0352C51.2695-36.9141 51.8066-37.793 52.9297-37.793L63.2812-37.793C64.0137-37.793 64.1602-38.4766 63.8672-38.916L57.2754-47.6562C56.5918-48.6328 55.7129-49.0234 54.541-49.0234L38.9648-49.0234C37.7441-49.0234 36.9141-48.6328 36.1816-47.6562L29.6387-38.916C29.248-38.4277 29.3945-37.793 30.1758-37.793Z"/>
  </g>
  <g id="Regular-S" transform="matrix(1 0 0 1 1403.58 696)">
   <path d="M46.2402 4.19922C67.7734 4.19922 85.6934-13.6719 85.6934-35.2051C85.6934-56.7383 67.7246-74.6094 46.1914-74.6094C24.707-74.6094 6.83594-56.7383 6.83594-35.2051C6.83594-13.6719 24.7559 4.19922 46.2402 4.19922ZM29.4434-18.9453C25.1953-18.9453 23.0957-21.0449 23.0957-25.1953L23.0957-36.084C23.0957-38.0859 23.4375-38.916 24.3164-40.1855L30.9082-49.2188C33.3496-52.5879 34.8145-53.418 38.4277-53.418L54.0527-53.418C57.7148-53.418 59.1309-52.5879 61.5723-49.2188L68.2129-40.1855C69.0918-38.916 69.4336-38.0859 69.4336-36.084L69.4336-25.1953C69.4336-21.0449 67.334-18.9453 63.0371-18.9453ZM29.248-37.4512L40.0391-37.4512C41.2109-37.4512 41.7969-36.5234 41.7969-35.6934L41.7969-35.1074C41.7969-32.4707 43.457-30.9082 46.2402-30.9082C49.0723-30.9082 50.8301-32.4707 50.8301-35.1074L50.8301-35.6934C50.8301-36.5234 51.3184-37.4512 52.4902-37.4512L63.2812-37.4512C63.9648-37.4512 64.1113-38.0859 63.8184-38.4766L57.2754-47.5098C56.543-48.5352 55.6152-48.9746 54.2969-48.9746L38.2324-48.9746C36.9629-48.9746 36.0352-48.584 35.2539-47.5098L28.7109-38.4766C28.3691-37.9883 28.5156-37.4512 29.248-37.4512Z"/>
  </g>
  <g id="Light-S" transform="matrix(1 0 0 1 1107.6 696)">
   <path d="M45.5078 3.4668C66.6992 3.4668 84.2285-14.0137 84.2285-35.2051C84.2285-56.3965 66.6504-73.877 45.5078-73.877C24.3164-73.877 6.83594-56.3965 6.83594-35.2051C6.83594-14.0137 24.3652 3.4668 45.5078 3.4668ZM28.4668-19.4336C24.5117-19.4336 22.5098-21.4355 22.5098-25.3418L22.5098-36.084C22.5098-37.793 22.7539-38.4766 23.5352-39.5508L30.7129-49.2188C32.8613-52.0996 34.1309-52.832 37.4512-52.832L53.6133-52.832C56.8848-52.832 58.1543-52.0996 60.3027-49.2188L67.5293-39.5508C68.3105-38.4766 68.5547-37.793 68.5547-36.084L68.5547-25.3418C68.5547-21.4844 66.6016-19.4336 62.5977-19.4336ZM27.5391-37.3535L39.2578-37.3535C40.2344-37.3535 40.7227-36.6211 40.7227-35.8887L40.7227-35.4492C40.7227-32.6172 42.627-30.7617 45.5078-30.7617C48.4375-30.7617 50.3906-32.6172 50.3906-35.4492L50.3906-35.8887C50.3906-36.6211 50.8301-37.3535 51.7578-37.3535L63.5254-37.3535C64.0625-37.3535 64.209-37.8418 63.9648-38.1836L56.9336-47.7051C56.1035-48.7793 55.3223-49.2676 53.9062-49.2676L37.207-49.2676C35.7422-49.2676 34.9609-48.8281 34.1309-47.7051L27.1484-38.1836C26.8555-37.793 26.9531-37.3535 27.5391-37.3535Z"/>
  </g>
  <g id="Thin-S" transform="matrix(1 0 0 1 811.867 696)">
   <path d="M44.5801 2.53906C65.2832 2.53906 82.2754-14.502 82.2754-35.2051C82.2754-55.9082 65.2344-72.9492 44.5312-72.9492C23.8281-72.9492 6.83594-55.9082 6.83594-35.2051C6.83594-14.502 23.877 2.53906 44.5801 2.53906ZM27.0996-20.0684C23.5352-20.0684 21.6797-21.9238 21.6797-25.4883L21.6797-36.1328C21.6797-37.3535 21.875-37.9395 22.5098-38.7207L30.4688-49.2188C32.2266-51.4648 33.3008-52.0508 36.084-52.0508L53.0273-52.0508C55.8105-52.0508 56.8848-51.4648 58.6426-49.2188L66.6504-38.7207C67.2363-37.9395 67.4316-37.3535 67.4316-36.1328L67.4316-25.4883C67.4316-21.9727 65.5762-20.0684 62.0117-20.0684ZM25.293-37.207L38.2324-37.207C38.9648-37.207 39.3066-36.7188 39.3066-36.1328L39.3066-35.8398C39.3066-32.7637 41.5039-30.6152 44.5801-30.6152C47.6074-30.6152 49.8535-32.7637 49.8535-35.8398L49.8535-36.1328C49.8535-36.7188 50.1953-37.207 50.8789-37.207L63.8672-37.207C64.209-37.207 64.3066-37.5 64.1602-37.7441L56.4453-47.9492C55.6152-49.1211 54.9316-49.6094 53.3203-49.6094L35.791-49.6094C34.1797-49.6094 33.5449-49.1211 32.666-47.9492L25-37.7441C24.8047-37.5 24.9023-37.207 25.293-37.207Z"/>
  </g>
  <g id="Ultralight-S" transform="matrix(1 0 0 1 515.644 696)">
   <path d="M44.043 2.00195C64.502 2.00195 81.2988-14.7461 81.2988-35.2051C81.2988-55.6641 64.502-72.4121 44.043-72.4121C23.584-72.4121 6.83594-55.6641 6.83594-35.2051C6.83594-14.7461 23.584 2.00195 44.043 2.00195ZM26.416-20.4102C23.0469-20.4102 21.2891-22.2168 21.2891-25.5859L21.2891-36.1328C21.2891-37.1582 21.4355-37.5977 21.9727-38.2812L30.3711-49.2188C31.8848-51.1719 32.8613-51.6602 35.4004-51.6602L52.6855-51.6602C55.2734-51.6602 56.25-51.1719 57.7637-49.2188L66.1621-38.2812C66.6992-37.5977 66.8457-37.1582 66.8457-36.1328L66.8457-25.5859C66.8457-22.2656 65.0391-20.4102 61.6699-20.4102ZM24.1211-37.1094L37.6953-37.1094C38.2812-37.1094 38.5254-36.7676 38.5254-36.2305L38.5254-36.084C38.5254-32.8613 40.9668-30.4688 44.043-30.4688C47.168-30.4688 49.5605-32.8613 49.5605-36.084L49.5605-36.2305C49.5605-36.7676 49.8535-37.1094 50.3906-37.1094L64.0137-37.1094C64.3066-37.1094 64.4043-37.3535 64.2578-37.5488L56.2012-48.0957C55.3223-49.2676 54.7363-49.8047 53.0273-49.8047L35.0586-49.8047C33.3984-49.8047 32.7637-49.2676 31.9336-48.0957L23.9258-37.5488C23.7793-37.3535 23.8281-37.1094 24.1211-37.1094Z"/>
  </g>
 </g>
</svg>
