<?xml version="1.0" encoding="UTF-8"?>
<!--Generator: Apple Native CoreSVG 149-->
<!DOCTYPE svg
PUBLIC "-//W3C//DTD SVG 1.1//EN"
       "http://www.w3.org/Graphics/SVG/1.1/DTD/svg11.dtd">
<svg version="1.1" xmlns="http://www.w3.org/2000/svg" xmlns:xlink="http://www.w3.org/1999/xlink" width="3300" height="2200">
 <!--glyph: "uni100218.medium", point size: 100.000000, font version: "Version 16.0d18e1", template writer version: "8"-->
 <g id="Notes">
  <rect height="2200" id="artboard" style="fill:white;opacity:1" width="3300" x="0" y="0"/>
  <line id="" style="fill:none;stroke:black;opacity:1;stroke-width:0.5;" x1="263" x2="3036" y1="292" y2="292"/>
  <text style="stroke:none;fill:black;font-family:-apple-system,&quot;SF Pro Display&quot;,&quot;SF Pro Text&quot;,Helvetica,sans-serif;font-weight:bold;" transform="matrix(1 0 0 1 263 322)">Weight/Scale Variations</text>
  <text style="stroke:none;fill:black;font-family:-apple-system,&quot;SF Pro Display&quot;,&quot;SF Pro Text&quot;,Helvetica,sans-serif;text-anchor:middle;" transform="matrix(1 0 0 1 559.711 322)">Ultralight</text>
  <text style="stroke:none;fill:black;font-family:-apple-system,&quot;SF Pro Display&quot;,&quot;SF Pro Text&quot;,Helvetica,sans-serif;text-anchor:middle;" transform="matrix(1 0 0 1 856.422 322)">Thin</text>
  <text style="stroke:none;fill:black;font-family:-apple-system,&quot;SF Pro Display&quot;,&quot;SF Pro Text&quot;,Helvetica,sans-serif;text-anchor:middle;" transform="matrix(1 0 0 1 1153.13 322)">Light</text>
  <text style="stroke:none;fill:black;font-family:-apple-system,&quot;SF Pro Display&quot;,&quot;SF Pro Text&quot;,Helvetica,sans-serif;text-anchor:middle;" transform="matrix(1 0 0 1 1449.84 322)">Regular</text>
  <text style="stroke:none;fill:black;font-family:-apple-system,&quot;SF Pro Display&quot;,&quot;SF Pro Text&quot;,Helvetica,sans-serif;text-anchor:middle;" transform="matrix(1 0 0 1 1746.56 322)">Medium</text>
  <text style="stroke:none;fill:black;font-family:-apple-system,&quot;SF Pro Display&quot;,&quot;SF Pro Text&quot;,Helvetica,sans-serif;text-anchor:middle;" transform="matrix(1 0 0 1 2043.27 322)">Semibold</text>
  <text style="stroke:none;fill:black;font-family:-apple-system,&quot;SF Pro Display&quot;,&quot;SF Pro Text&quot;,Helvetica,sans-serif;text-anchor:middle;" transform="matrix(1 0 0 1 2339.98 322)">Bold</text>
  <text style="stroke:none;fill:black;font-family:-apple-system,&quot;SF Pro Display&quot;,&quot;SF Pro Text&quot;,Helvetica,sans-serif;text-anchor:middle;" transform="matrix(1 0 0 1 2636.69 322)">Heavy</text>
  <text style="stroke:none;fill:black;font-family:-apple-system,&quot;SF Pro Display&quot;,&quot;SF Pro Text&quot;,Helvetica,sans-serif;text-anchor:middle;" transform="matrix(1 0 0 1 2933.4 322)">Black</text>
  <line id="" style="fill:none;stroke:black;opacity:1;stroke-width:0.5;" x1="263" x2="3036" y1="1903" y2="1903"/>
  <g id="" transform="matrix(1 0 0 1 263 1933)">
   <path d="M9.24805 0.830078C13.5547 0.830078 17.1387-2.74414 17.1387-7.05078C17.1387-11.3574 13.5449-14.9316 9.23828-14.9316C4.94141-14.9316 1.36719-11.3574 1.36719-7.05078C1.36719-2.74414 4.95117 0.830078 9.24805 0.830078ZM9.24805-0.654297C5.70312-0.654297 2.87109-3.49609 2.87109-7.05078C2.87109-10.6055 5.69336-13.4473 9.23828-13.4473C12.793-13.4473 15.6348-10.6055 15.6445-7.05078C15.6543-3.49609 12.8027-0.654297 9.24805-0.654297ZM6.39648-6.31836L8.50586-6.31836L8.50586-4.19922C8.50586-3.75977 8.79883-3.45703 9.22852-3.45703C9.67773-3.45703 9.9707-3.75977 9.9707-4.19922L9.9707-6.31836L12.0996-6.31836C12.5391-6.31836 12.8418-6.61133 12.8418-7.04102C12.8418-7.48047 12.5391-7.7832 12.0996-7.7832L9.9707-7.7832L9.9707-9.89258C9.9707-10.3418 9.67773-10.6445 9.22852-10.6445C8.79883-10.6445 8.50586-10.3418 8.50586-9.89258L8.50586-7.7832L6.39648-7.7832C5.94727-7.7832 5.64453-7.48047 5.64453-7.04102C5.64453-6.61133 5.94727-6.31836 6.39648-6.31836Z"/>
  </g>
  <g id="" transform="matrix(1 0 0 1 281.506 1933)">
   <path d="M11.709 2.91016C17.1582 2.91016 21.6699-1.61133 21.6699-7.05078C21.6699-12.5 17.1484-17.0117 11.6992-17.0117C6.25977-17.0117 1.74805-12.5 1.74805-7.05078C1.74805-1.61133 6.26953 2.91016 11.709 2.91016ZM11.709 1.25C7.09961 1.25 3.41797-2.44141 3.41797-7.05078C3.41797-11.6602 7.08984-15.3516 11.6992-15.3516C16.3086-15.3516 20-11.6602 20.0098-7.05078C20.0195-2.44141 16.3184 1.25 11.709 1.25ZM7.98828-6.23047L10.8789-6.23047L10.8789-3.32031C10.8789-2.83203 11.2109-2.5 11.6895-2.5C12.1777-2.5 12.5195-2.83203 12.5195-3.32031L12.5195-6.23047L15.4297-6.23047C15.918-6.23047 16.25-6.5625 16.25-7.04102C16.25-7.5293 15.918-7.87109 15.4297-7.87109L12.5195-7.87109L12.5195-10.7617C12.5195-11.2695 12.1777-11.6016 11.6895-11.6016C11.2109-11.6016 10.8789-11.2598 10.8789-10.7617L10.8789-7.87109L7.98828-7.87109C7.48047-7.87109 7.14844-7.5293 7.14844-7.04102C7.14844-6.5625 7.49023-6.23047 7.98828-6.23047Z"/>
  </g>
  <g id="" transform="matrix(1 0 0 1 304.924 1933)">
   <path d="M14.9707 5.66406C21.9336 5.66406 27.6953-0.0976562 27.6953-7.05078C27.6953-14.0137 21.9238-19.7754 14.9609-19.7754C8.00781-19.7754 2.25586-14.0137 2.25586-7.05078C2.25586-0.0976562 8.01758 5.66406 14.9707 5.66406ZM14.9707 3.84766C8.93555 3.84766 4.08203-1.01562 4.08203-7.05078C4.08203-13.0957 8.92578-17.9492 14.9609-17.9492C21.0059-17.9492 25.8594-13.0957 25.8691-7.05078C25.8789-1.01562 21.0156 3.84766 14.9707 3.84766ZM10.0586-6.14258L14.0625-6.14258L14.0625-2.12891C14.0625-1.5918 14.4336-1.2207 14.9512-1.2207C15.4883-1.2207 15.8594-1.5918 15.8594-2.12891L15.8594-6.14258L19.8828-6.14258C20.4102-6.14258 20.791-6.51367 20.791-7.03125C20.791-7.56836 20.4199-7.94922 19.8828-7.94922L15.8594-7.94922L15.8594-11.9531C15.8594-12.5098 15.4883-12.8809 14.9512-12.8809C14.4336-12.8809 14.0625-12.5 14.0625-11.9531L14.0625-7.94922L10.0586-7.94922C9.50195-7.94922 9.13086-7.56836 9.13086-7.03125C9.13086-6.51367 9.51172-6.14258 10.0586-6.14258Z"/>
  </g>
  <text style="stroke:none;fill:black;font-family:-apple-system,&quot;SF Pro Display&quot;,&quot;SF Pro Text&quot;,Helvetica,sans-serif;font-weight:bold;" transform="matrix(1 0 0 1 263 1953)">Design Variations</text>
  <text style="stroke:none;fill:black;font-family:-apple-system,&quot;SF Pro Display&quot;,&quot;SF Pro Text&quot;,Helvetica,sans-serif;" transform="matrix(1 0 0 1 263 1971)">Symbols are supported in up to nine weights and three scales.</text>
  <text style="stroke:none;fill:black;font-family:-apple-system,&quot;SF Pro Display&quot;,&quot;SF Pro Text&quot;,Helvetica,sans-serif;" transform="matrix(1 0 0 1 263 1989)">For optimal layout with text and other symbols, vertically align</text>
  <text style="stroke:none;fill:black;font-family:-apple-system,&quot;SF Pro Display&quot;,&quot;SF Pro Text&quot;,Helvetica,sans-serif;" transform="matrix(1 0 0 1 263 2007)">symbols with the adjacent text.</text>
  <line id="" style="fill:none;stroke:#00AEEF;stroke-width:0.5;opacity:1.0;" x1="776" x2="776" y1="1919" y2="1933"/>
  <g id="" transform="matrix(1 0 0 1 776 1933)">
   <path d="M3.31055 0.126953C3.82812 0.126953 4.08203-0.0683594 4.26758-0.605469L5.52734-4.0625L11.2891-4.0625L12.5488-0.605469C12.7344-0.0683594 12.9883 0.126953 13.4961 0.126953C14.0137 0.126953 14.3457-0.185547 14.3457-0.673828C14.3457-0.839844 14.3164-0.986328 14.2383-1.20117L9.6582-13.3887C9.43359-13.9941 9.0332-14.2871 8.4082-14.2871C7.80273-14.2871 7.39258-13.9941 7.17773-13.3984L2.59766-1.19141C2.51953-0.976562 2.49023-0.830078 2.49023-0.664062C2.49023-0.175781 2.80273 0.126953 3.31055 0.126953ZM6.00586-5.53711L8.37891-12.1094L8.42773-12.1094L10.8008-5.53711Z"/>
  </g>
  <line id="" style="fill:none;stroke:#00AEEF;stroke-width:0.5;opacity:1.0;" x1="792.836" x2="792.836" y1="1919" y2="1933"/>
  <text style="stroke:none;fill:black;font-family:-apple-system,&quot;SF Pro Display&quot;,&quot;SF Pro Text&quot;,Helvetica,sans-serif;font-weight:bold;" transform="matrix(1 0 0 1 776 1953)">Margins</text>
  <text style="stroke:none;fill:black;font-family:-apple-system,&quot;SF Pro Display&quot;,&quot;SF Pro Text&quot;,Helvetica,sans-serif;" transform="matrix(1 0 0 1 776 1971)">Leading and trailing margins on the left and right side of each symbol</text>
  <text style="stroke:none;fill:black;font-family:-apple-system,&quot;SF Pro Display&quot;,&quot;SF Pro Text&quot;,Helvetica,sans-serif;" transform="matrix(1 0 0 1 776 1989)">can be adjusted by modifying the x-location of the margin guidelines.</text>
  <text style="stroke:none;fill:black;font-family:-apple-system,&quot;SF Pro Display&quot;,&quot;SF Pro Text&quot;,Helvetica,sans-serif;" transform="matrix(1 0 0 1 776 2007)">Modifications are automatically applied proportionally to all</text>
  <text style="stroke:none;fill:black;font-family:-apple-system,&quot;SF Pro Display&quot;,&quot;SF Pro Text&quot;,Helvetica,sans-serif;" transform="matrix(1 0 0 1 776 2025)">scales and weights.</text>
  <g id="" transform="matrix(1 0 0 1 1289 1933)">
   <path d="M2.8418 1.86523L4.54102 3.57422C5.40039 4.44336 6.38672 4.38477 7.31445 3.35938L17.4902-7.85156C17.7539-7.76367 18.0273-7.7832 18.3398-7.8418L19.4043-8.03711L20.0684-7.36328L20.0293-6.80664C19.9902-6.30859 20.1172-5.92773 20.6055-5.44922L21.3672-4.70703C21.8457-4.22852 22.4609-4.19922 22.9297-4.66797L25.8398-7.58789C26.3086-8.05664 26.2891-8.65234 25.8105-9.13086L25.0391-9.89258C24.5605-10.3711 24.1895-10.5273 23.7109-10.4883L23.1348-10.4395L22.4902-11.0742L22.7344-12.1973C22.8613-12.7637 22.7051-13.2031 22.1191-13.7891L19.9219-15.9766C16.582-19.2969 12.1484-19.2188 9.25781-16.3281C8.83789-15.918 8.80859-15.3418 9.04297-14.9512C9.27734-14.5898 9.73633-14.3555 10.3809-14.5215C11.8457-14.8633 13.3691-14.9219 14.7949-13.9844L14.209-12.5293C14.0137-12.0508 13.9844-11.6504 14.1113-11.2891L3.04688-0.898438C2.06055 0.0195312 1.98242 0.996094 2.8418 1.86523ZM10.752-15.957C13.1836-17.7344 16.4746-17.4316 18.7012-15.2051L21.1328-12.793C21.3672-12.5586 21.4062-12.373 21.3379-12.0312L21.0156-10.5469L22.5195-9.0625L23.5059-9.12109C23.7598-9.13086 23.8379-9.11133 24.0332-8.91602L24.6094-8.33984L22.168-5.89844L21.5918-6.47461C21.3965-6.66992 21.3672-6.74805 21.377-7.01172L21.4453-7.98828L19.9512-9.47266L18.4277-9.21875C18.1055-9.15039 17.959-9.17969 17.7148-9.41406L15.7129-11.416C15.459-11.6504 15.4297-11.8164 15.5859-12.1875L16.4648-14.2773C14.9023-15.7324 12.8711-16.3574 10.8398-15.7617C10.6836-15.7227 10.625-15.8496 10.752-15.957ZM5.27344 2.30469L4.10156 1.14258C3.63281 0.683594 3.74023 0.341797 4.14062-0.0195312L14.9512-10.1953L16.416-8.71094L6.42578 2.27539C6.07422 2.67578 5.74219 2.77344 5.27344 2.30469Z"/>
  </g>
  <text style="stroke:none;fill:black;font-family:-apple-system,&quot;SF Pro Display&quot;,&quot;SF Pro Text&quot;,Helvetica,sans-serif;font-weight:bold;" transform="matrix(1 0 0 1 1289 1953)">Exporting</text>
  <text style="stroke:none;fill:black;font-family:-apple-system,&quot;SF Pro Display&quot;,&quot;SF Pro Text&quot;,Helvetica,sans-serif;" transform="matrix(1 0 0 1 1289 1971)">Symbols should be outlined when exporting to ensure the</text>
  <text style="stroke:none;fill:black;font-family:-apple-system,&quot;SF Pro Display&quot;,&quot;SF Pro Text&quot;,Helvetica,sans-serif;" transform="matrix(1 0 0 1 1289 1989)">design is preserved when submitting to Xcode.</text>
  <text id="template-version" style="stroke:none;fill:black;font-family:-apple-system,&quot;SF Pro Display&quot;,&quot;SF Pro Text&quot;,Helvetica,sans-serif;text-anchor:end;" transform="matrix(1 0 0 1 3036 1933)">Template v.2.0</text>
  <text style="stroke:none;fill:black;font-family:-apple-system,&quot;SF Pro Display&quot;,&quot;SF Pro Text&quot;,Helvetica,sans-serif;text-anchor:end;" transform="matrix(1 0 0 1 3036 1951)">Requires Xcode 12 or greater</text>
  <text style="stroke:none;fill:black;font-family:-apple-system,&quot;SF Pro Display&quot;,&quot;SF Pro Text&quot;,Helvetica,sans-serif;text-anchor:end;" transform="matrix(1 0 0 1 3036 1969)">Generated from folder.circle.fill</text>
  <text style="stroke:none;fill:black;font-family:-apple-system,&quot;SF Pro Display&quot;,&quot;SF Pro Text&quot;,Helvetica,sans-serif;text-anchor:end;" transform="matrix(1 0 0 1 3036 1987)">Typeset at 100 points</text>
  <text style="stroke:none;fill:black;font-family:-apple-system,&quot;SF Pro Display&quot;,&quot;SF Pro Text&quot;,Helvetica,sans-serif;" transform="matrix(1 0 0 1 263 726)">Small</text>
  <text style="stroke:none;fill:black;font-family:-apple-system,&quot;SF Pro Display&quot;,&quot;SF Pro Text&quot;,Helvetica,sans-serif;" transform="matrix(1 0 0 1 263 1156)">Medium</text>
  <text style="stroke:none;fill:black;font-family:-apple-system,&quot;SF Pro Display&quot;,&quot;SF Pro Text&quot;,Helvetica,sans-serif;" transform="matrix(1 0 0 1 263 1586)">Large</text>
 </g>
 <g id="Guides">
  <g id="H-reference" style="fill:#27AAE1;stroke:none;" transform="matrix(1 0 0 1 339 696)">
   <path d="M0.976562 0L3.66211 0L12.9883-24.4629L45.752-24.4629L55.127 0L57.7637 0L30.6152-70.459L28.125-70.459ZM29.3457-67.1387L29.4434-67.1387L44.873-26.709L13.8672-26.709Z"/>
  </g>
  <line id="Baseline-S" style="fill:none;stroke:#27AAE1;opacity:1;stroke-width:0.5;" x1="263" x2="3036" y1="696" y2="696"/>
  <line id="Capline-S" style="fill:none;stroke:#27AAE1;opacity:1;stroke-width:0.5;" x1="263" x2="3036" y1="625.541" y2="625.541"/>
  <g id="H-reference" style="fill:#27AAE1;stroke:none;" transform="matrix(1 0 0 1 339 1126)">
   <path d="M0.976562 0L3.66211 0L12.9883-24.4629L45.752-24.4629L55.127 0L57.7637 0L30.6152-70.459L28.125-70.459ZM29.3457-67.1387L29.4434-67.1387L44.873-26.709L13.8672-26.709Z"/>
  </g>
  <line id="Baseline-M" style="fill:none;stroke:#27AAE1;opacity:1;stroke-width:0.5;" x1="263" x2="3036" y1="1126" y2="1126"/>
  <line id="Capline-M" style="fill:none;stroke:#27AAE1;opacity:1;stroke-width:0.5;" x1="263" x2="3036" y1="1055.54" y2="1055.54"/>
  <g id="H-reference" style="fill:#27AAE1;stroke:none;" transform="matrix(1 0 0 1 339 1556)">
   <path d="M0.976562 0L3.66211 0L12.9883-24.4629L45.752-24.4629L55.127 0L57.7637 0L30.6152-70.459L28.125-70.459ZM29.3457-67.1387L29.4434-67.1387L44.873-26.709L13.8672-26.709Z"/>
  </g>
  <line id="Baseline-L" style="fill:none;stroke:#27AAE1;opacity:1;stroke-width:0.5;" x1="263" x2="3036" y1="1556" y2="1556"/>
  <line id="Capline-L" style="fill:none;stroke:#27AAE1;opacity:1;stroke-width:0.5;" x1="263" x2="3036" y1="1485.54" y2="1485.54"/>
  <line id="left-margin" style="fill:none;stroke:#00AEEF;stroke-width:0.5;opacity:1.0;" x1="1391.3" x2="1391.3" y1="1030.79" y2="1150.12"/>
  <line id="right-margin" style="fill:none;stroke:#00AEEF;stroke-width:0.5;opacity:1.0;" x1="1508.39" x2="1508.39" y1="1030.79" y2="1150.12"/>
 </g>
 <g id="Symbols">
  <g id="Black-L" transform="matrix(1 0 0 1 2854.05 1556)">
   <path d="M79.3457 32.9102C116.748 32.9102 147.412 2.29492 147.412-35.1074C147.412-72.5586 116.748-103.174 79.2969-103.174C41.8945-103.174 11.2793-72.5586 11.2793-35.1074C11.2793 2.29492 41.9434 32.9102 79.3457 32.9102ZM44.6289-45.6055L44.6289-54.6875C44.6289-61.6211 48.7793-65.7227 55.3711-65.7227L63.7207-65.7227C67.334-65.7227 68.8477-64.9414 71.2891-63.2812L72.7539-62.3047C74.8047-60.9375 76.1719-60.2051 78.5156-60.2051L102.979-60.2051C110.107-60.2051 114.014-56.2988 114.014-49.3164L114.014-45.6055ZM44.6289-17.041L44.6289-39.5508L114.014-39.5508L114.014-17.041C114.014-10.1562 110.107-6.20117 103.369-6.20117L55.6641-6.20117C48.5352-6.20117 44.6289-10.1562 44.6289-17.041Z"/>
  </g>
  <g id="Heavy-L" transform="matrix(1 0 0 1 2558.39 1556)">
   <path d="M78.2715 31.8848C115.088 31.8848 145.312 1.66016 145.312-35.1562C145.312-71.9238 115.039-102.148 78.2715-102.148C41.4551-102.148 11.2793-71.9238 11.2793-35.1562C11.2793 1.66016 41.5039 31.8848 78.2715 31.8848ZM43.1641-46.0938L43.1641-55.1758C43.1641-61.8652 47.0215-65.7227 53.3203-65.7227L61.9629-65.7227C65.4297-65.7227 66.9434-64.9902 69.3359-63.3301L70.8984-62.1582C72.8516-60.8398 74.1699-60.1562 76.5137-60.1562L102.686-60.1562C109.619-60.1562 113.379-56.3965 113.379-49.5605L113.379-46.0938ZM43.1641-16.6504L43.1641-40.332L113.379-40.332L113.379-16.6504C113.379-9.91211 109.619-6.15234 103.125-6.15234L53.8574-6.15234C46.9238-6.15234 43.1641-9.91211 43.1641-16.6504Z"/>
  </g>
  <g id="Bold-L" transform="matrix(1 0 0 1 2262.88 1556)">
   <path d="M77.0996 30.6641C113.232 30.6641 142.92 0.927734 142.92-35.1562C142.92-71.2891 113.184-100.977 77.0508-100.977C40.9668-100.977 11.2793-71.2891 11.2793-35.1562C11.2793 0.927734 41.0156 30.6641 77.0996 30.6641ZM41.5039-46.6797L41.5039-55.7129C41.5039-62.1582 45.0684-65.6738 51.0254-65.6738L60.0098-65.6738C63.3301-65.6738 64.7949-65.0391 67.1387-63.3301L68.8477-62.0605C70.6543-60.6934 71.9238-60.0586 74.3164-60.0586L102.344-60.0586C109.033-60.0586 112.646-56.4941 112.646-49.8535L112.646-46.6797ZM41.5039-16.2109L41.5039-41.2109L112.646-41.2109L112.646-16.2109C112.646-9.61914 109.082-6.05469 102.881-6.05469L51.8066-6.05469C45.1172-6.05469 41.5039-9.61914 41.5039-16.2109Z"/>
  </g>
  <g id="Semibold-L" transform="matrix(1 0 0 1 1966.97 1556)">
   <path d="M76.2695 29.834C111.914 29.834 141.309 0.439453 141.309-35.1562C141.309-70.8008 111.865-100.195 76.2695-100.195C40.625-100.195 11.2793-70.8008 11.2793-35.1562C11.2793 0.439453 40.6738 29.834 76.2695 29.834ZM40.3809-47.0703L40.3809-56.1035C40.3809-62.3535 43.7012-65.6738 49.4629-65.6738L58.6426-65.6738C61.9141-65.6738 63.3301-65.0879 65.625-63.3789L67.3828-61.9629C69.1406-60.6445 70.3613-60.0098 72.7539-60.0098L102.1-60.0098C108.691-60.0098 112.158-56.543 112.158-50.0977L112.158-47.0703ZM40.3809-15.8691L40.3809-41.8457L112.158-41.8457L112.158-15.8691C112.158-9.47266 108.74-6.00586 102.734-6.00586L50.4395-6.00586C43.8477-6.00586 40.3809-9.42383 40.3809-15.8691Z"/>
  </g>
  <g id="Medium-L" transform="matrix(1 0 0 1 1670.87 1556)">
   <path d="M75.6836 29.1992C110.938 29.1992 140.088 0.0976562 140.088-35.1562C140.088-70.459 110.889-99.5605 75.6348-99.5605C40.3809-99.5605 11.2793-70.459 11.2793-35.1562C11.2793 0.0976562 40.3809 29.1992 75.6836 29.1992ZM39.502-47.3633L39.502-56.3965C39.502-62.5 42.6758-65.6738 48.291-65.6738L57.6172-65.6738C60.791-65.6738 62.2559-65.1367 64.4531-63.3789L66.3086-61.9141C68.0176-60.5469 69.1895-59.9609 71.6309-59.9609L101.904-59.9609C108.398-59.9609 111.768-56.5918 111.768-50.2441L111.768-47.3633ZM39.502-15.625L39.502-42.2852L111.768-42.2852L111.768-15.625C111.768-9.32617 108.447-5.95703 102.637-5.95703L49.3652-5.95703C42.8711-5.95703 39.502-9.27734 39.502-15.625Z"/>
  </g>
  <g id="Regular-L" transform="matrix(1 0 0 1 1374.97 1556)">
   <path d="M74.8535 28.418C109.668 28.418 138.477-0.390625 138.477-35.2051C138.477-69.9707 109.619-98.7793 74.8047-98.7793C40.0391-98.7793 11.2793-69.9707 11.2793-35.2051C11.2793-0.390625 40.0879 28.418 74.8535 28.418ZM38.3789-47.7539L38.3789-56.7871C38.3789-62.6953 41.3574-65.6738 46.7285-65.6738L56.25-65.6738C59.375-65.6738 60.791-65.1367 62.9883-63.3789L64.8926-61.8164C66.5039-60.498 67.6758-59.9121 70.1172-59.9121L101.66-59.9121C108.008-59.9121 111.279-56.6895 111.279-50.4395L111.279-47.7539ZM38.3789-15.332L38.3789-42.9199L111.279-42.9199L111.279-15.332C111.279-9.13086 108.057-5.9082 102.441-5.9082L47.998-5.9082C41.6504-5.9082 38.3789-9.08203 38.3789-15.332Z"/>
  </g>
  <g id="Light-L" transform="matrix(1 0 0 1 1079.18 1556)">
   <path d="M73.9258 27.4902C108.301 27.4902 136.621-0.830078 136.621-35.2051C136.621-69.5312 108.252-97.8516 73.9258-97.8516C39.5508-97.8516 11.2793-69.5312 11.2793-35.2051C11.2793-0.830078 39.5996 27.4902 73.9258 27.4902ZM37.3535-47.5586L37.3535-57.373C37.3535-62.8418 40.0879-65.5762 45.2637-65.5762L54.834-65.5762C58.0078-65.5762 59.3262-65.1367 61.4746-63.2812L63.3301-61.7188C64.9902-60.2539 66.2109-59.7656 68.8477-59.7656L101.318-59.7656C107.324-59.7656 110.498-56.5918 110.498-50.6836L110.498-47.5586ZM37.3535-15.2344L37.3535-43.3105L110.498-43.3105L110.498-15.2344C110.498-9.32617 107.373-6.25 101.807-6.25L46.5332-6.25C40.5273-6.25 37.3535-9.27734 37.3535-15.2344Z"/>
  </g>
  <g id="Thin-L" transform="matrix(1 0 0 1 783.693 1556)">
   <path d="M72.7051 26.2695C106.494 26.2695 134.18-1.41602 134.18-35.2051C134.18-68.9453 106.494-96.6309 72.7051-96.6309C38.9648-96.6309 11.2793-68.9453 11.2793-35.2051C11.2793-1.41602 38.9648 26.2695 72.7051 26.2695ZM35.9863-47.3145L35.9863-58.1543C35.9863-63.0371 38.4277-65.4785 43.3105-65.4785L52.9297-65.4785C56.2988-65.4785 57.373-65.0879 59.5703-63.1348L61.2793-61.5234C63.0371-59.9121 64.209-59.5215 67.1875-59.5215L100.83-59.5215C106.396-59.5215 109.424-56.4453 109.424-50.9766L109.424-47.3145ZM35.9863-15.1367L35.9863-43.8965L109.424-43.8965L109.424-15.1367C109.424-9.57031 106.396-6.64062 100.928-6.64062L44.5801-6.64062C39.0137-6.64062 35.9863-9.47266 35.9863-15.1367Z"/>
  </g>
  <g id="Ultralight-L" transform="matrix(1 0 0 1 487.616 1556)">
   <path d="M72.1191 25.6348C105.566 25.6348 132.91-1.70898 132.91-35.2051C132.91-68.6523 105.566-95.9961 72.1191-95.9961C38.623-95.9961 11.2793-68.6523 11.2793-35.2051C11.2793-1.70898 38.623 25.6348 72.1191 25.6348ZM35.3027-47.168L35.3027-58.5449C35.3027-63.1348 37.5488-65.3809 42.2852-65.3809L51.9531-65.3809C55.3711-65.3809 56.3965-65.0879 58.5449-63.0371L60.2051-61.4258C62.0117-59.7168 63.1836-59.4238 66.3574-59.4238L100.586-59.4238C105.908-59.4238 108.887-56.3965 108.887-51.123L108.887-47.168ZM35.3027-15.0391L35.3027-44.1895L108.887-44.1895L108.887-15.0391C108.887-9.66797 105.908-6.83594 100.488-6.83594L43.6035-6.83594C38.2324-6.83594 35.3027-9.57031 35.3027-15.0391Z"/>
  </g>
  <g id="Black-M" transform="matrix(1 0 0 1 2870.97 1126)">
   <path d="M62.4023 18.5547C91.9922 18.5547 116.113-5.56641 116.113-35.1562C116.113-64.7461 91.9922-88.8184 62.4023-88.8184C32.8125-88.8184 8.74023-64.7461 8.74023-35.1562C8.74023-5.56641 32.8125 18.5547 62.4023 18.5547ZM36.0352-42.4805L36.0352-49.9512C36.0352-55.4199 39.502-58.8379 44.873-58.8379L51.0254-58.8379C54.0039-58.8379 55.127-58.2031 57.1289-56.8848L58.0566-56.25C59.8145-55.127 60.9375-54.5898 62.8906-54.5898L80.0781-54.5898C85.5957-54.5898 88.8184-51.3672 88.8184-45.8984L88.8184-42.4805ZM36.0352-21.6309L36.0352-37.7441L88.8184-37.7441L88.8184-21.6309C88.8184-16.2109 85.5957-12.9883 80.0293-12.9883L44.7754-12.9883C39.209-12.9883 36.0352-16.2109 36.0352-21.6309Z"/>
  </g>
  <g id="Heavy-M" transform="matrix(1 0 0 1 2575.19 1126)">
   <path d="M61.5234 17.627C90.5273 17.627 114.258-6.10352 114.258-35.1562C114.258-64.1602 90.5273-87.8906 61.4746-87.8906C32.4707-87.8906 8.74023-64.1602 8.74023-35.1562C8.74023-6.10352 32.4707 17.627 61.5234 17.627ZM34.668-43.0664L34.668-50.3418C34.668-55.6641 37.8906-58.8379 43.0176-58.8379L49.4629-58.8379C52.2949-58.8379 53.418-58.252 55.3711-56.9336L56.4453-56.2012C58.0566-55.0781 59.1309-54.541 61.0352-54.541L79.7852-54.541C85.2539-54.541 88.3301-51.5137 88.3301-46.1426L88.3301-43.0664ZM34.668-21.2402L34.668-38.4766L88.3301-38.4766L88.3301-21.2402C88.3301-15.918 85.2539-12.8418 79.9805-12.8418L43.1641-12.8418C37.7441-12.8418 34.668-15.918 34.668-21.2402Z"/>
  </g>
  <g id="Bold-M" transform="matrix(1 0 0 1 2279.5 1126)">
   <path d="M60.498 16.5527C88.8672 16.5527 112.207-6.73828 112.207-35.1562C112.207-63.5742 88.8672-86.9141 60.4492-86.9141C32.0312-86.9141 8.74023-63.5742 8.74023-35.1562C8.74023-6.73828 32.0801 16.5527 60.498 16.5527ZM33.2031-43.75L33.2031-50.7812C33.2031-55.957 36.1328-58.8379 40.9668-58.8379L47.7051-58.8379C50.3906-58.8379 51.5625-58.3008 53.3691-56.9824L54.6387-56.1035C56.1035-55.0293 57.1289-54.541 58.9355-54.541L79.541-54.541C84.8633-54.541 87.7441-51.6602 87.7441-46.3867L87.7441-43.75ZM33.2031-20.752L33.2031-39.3555L87.7441-39.3555L87.7441-20.752C87.7441-15.5762 84.8633-12.6465 79.8828-12.6465L41.4062-12.6465C36.084-12.6465 33.2031-15.5273 33.2031-20.752Z"/>
  </g>
  <g id="Semibold-M" transform="matrix(1 0 0 1 1983.5 1126)">
   <path d="M59.7656 15.8691C87.7441 15.8691 110.791-7.22656 110.791-35.1562C110.791-63.1348 87.6953-86.2305 59.7656-86.2305C31.7871-86.2305 8.74023-63.1348 8.74023-35.1562C8.74023-7.22656 31.7871 15.8691 59.7656 15.8691ZM32.1289-44.2383L32.1289-51.0742C32.1289-56.1035 34.9121-58.8379 39.5508-58.8379L46.5332-58.8379C49.0723-58.8379 50.2441-58.3496 52.002-57.0312L53.3691-56.0547C54.7852-55.0293 55.7129-54.4922 57.5195-54.4922L79.3457-54.4922C84.5703-54.4922 87.3535-51.7578 87.3535-46.582L87.3535-44.2383ZM32.1289-20.4102L32.1289-39.9414L87.3535-39.9414L87.3535-20.4102C87.3535-15.332 84.6191-12.5488 79.834-12.5488L40.1855-12.5488C34.9121-12.5488 32.1289-15.2832 32.1289-20.4102Z"/>
  </g>
  <g id="Medium-M" transform="matrix(1 0 0 1 1687.3 1126)">
   <path d="M59.2285 15.332C86.9141 15.332 109.766-7.51953 109.766-35.2051C109.766-62.8418 86.8652-85.6934 59.1797-85.6934C31.543-85.6934 8.74023-62.8418 8.74023-35.2051C8.74023-7.51953 31.5918 15.332 59.2285 15.332ZM31.3477-44.5801L31.3477-51.2695C31.3477-56.25 33.9844-58.8867 38.4277-58.8867L45.6055-58.8867C48.0469-58.8867 49.2188-58.3984 50.9766-57.0801L52.4414-56.0059C53.7598-54.9805 54.6875-54.4922 56.4453-54.4922L79.1992-54.4922C84.375-54.4922 87.0605-51.8066 87.0605-46.7285L87.0605-44.5801ZM31.3477-20.166L31.3477-40.3809L87.0605-40.3809L87.0605-20.166C87.0605-15.1367 84.4238-12.4512 79.834-12.4512L39.2578-12.4512C34.0332-12.4512 31.3477-15.1367 31.3477-20.166Z"/>
  </g>
  <g id="Regular-M" transform="matrix(1 0 0 1 1391.3 1126)">
   <path d="M58.5449 14.5996C85.791 14.5996 108.35-7.95898 108.35-35.2051C108.35-62.4023 85.7422-85.0098 58.4961-85.0098C31.2988-85.0098 8.74023-62.4023 8.74023-35.2051C8.74023-7.95898 31.3477 14.5996 58.5449 14.5996ZM30.3223-45.0195L30.3223-51.5625C30.3223-56.4453 32.7637-58.8867 37.0605-58.8867L44.4336-58.8867C46.7285-58.8867 47.9492-58.4473 49.6094-57.1289L51.1719-55.9082C52.3926-54.9316 53.2715-54.4434 55.0293-54.4434L79.0039-54.4434C84.082-54.4434 86.7188-51.9043 86.7188-46.875L86.7188-45.0195ZM30.3223-19.873L30.3223-40.918L86.7188-40.918L86.7188-19.873C86.7188-14.8926 84.1309-12.3535 79.7852-12.3535L38.0371-12.3535C32.9102-12.3535 30.3223-14.8926 30.3223-19.873Z"/>
  </g>
  <g id="Light-M" transform="matrix(1 0 0 1 1095.42 1126)">
   <path d="M57.7148 13.7695C84.5215 13.7695 106.689-8.34961 106.689-35.2051C106.689-62.0117 84.5215-84.1797 57.666-84.1797C30.8594-84.1797 8.74023-62.0117 8.74023-35.2051C8.74023-8.34961 30.9082 13.7695 57.7148 13.7695ZM29.3945-44.873L29.3945-52.0996C29.3945-56.543 31.6406-58.7891 35.7422-58.7891L43.1152-58.7891C45.5566-58.7891 46.6309-58.3984 48.291-57.0312L49.7559-55.8105C51.0742-54.7363 51.9531-54.2969 53.9062-54.2969L78.6621-54.2969C83.4961-54.2969 85.9863-51.8066 85.9863-47.0703L85.9863-44.873ZM29.3945-19.7754L29.3945-41.3086L85.9863-41.3086L85.9863-19.7754C85.9863-15.0391 83.4961-12.5977 79.1504-12.5977L36.7188-12.5977C31.8848-12.5977 29.3945-15.0391 29.3945-19.7754Z"/>
  </g>
  <g id="Thin-M" transform="matrix(1 0 0 1 799.806 1126)">
   <path d="M56.6406 12.6953C82.9102 12.6953 104.492-8.88672 104.492-35.2051C104.492-61.4746 82.9102-83.0566 56.5918-83.0566C30.3223-83.0566 8.74023-61.4746 8.74023-35.2051C8.74023-8.88672 30.3223 12.6953 56.6406 12.6953ZM28.1738-44.6289L28.1738-52.832C28.1738-56.7383 30.127-58.6914 33.9844-58.6914L41.4062-58.6914C43.9941-58.6914 44.873-58.3984 46.582-56.8848L47.9004-55.6641C49.2676-54.3945 50.1953-54.1016 52.4414-54.1016L78.2227-54.1016C82.666-54.1016 85.0098-51.709 85.0098-47.3633L85.0098-44.6289ZM28.1738-19.6777L28.1738-41.7969L85.0098-41.7969L85.0098-19.6777C85.0098-15.2832 82.666-12.9883 78.3691-12.9883L34.9609-12.9883C30.5664-12.9883 28.1738-15.2344 28.1738-19.6777Z"/>
  </g>
  <g id="Ultralight-M" transform="matrix(1 0 0 1 503.656 1126)">
   <path d="M56.0547 12.1094C82.0801 12.1094 103.369-9.17969 103.369-35.2051C103.369-61.2305 82.0801-82.5195 56.0547-82.5195C30.0293-82.5195 8.74023-61.2305 8.74023-35.2051C8.74023-9.17969 30.0293 12.1094 56.0547 12.1094ZM27.5391-44.5312L27.5391-53.1738C27.5391-56.8359 29.3457-58.6426 33.0566-58.6426L40.5762-58.6426C43.1641-58.6426 43.9941-58.3984 45.6543-56.8359L46.9727-55.5664C48.3398-54.248 49.2676-54.0039 51.6602-54.0039L78.0273-54.0039C82.2266-54.0039 84.5215-51.6602 84.5215-47.5098L84.5215-44.5312ZM27.5391-19.6289L27.5391-42.0898L84.5215-42.0898L84.5215-19.6289C84.5215-15.3809 82.2266-13.1348 77.9785-13.1348L34.082-13.1348C29.834-13.1348 27.5391-15.332 27.5391-19.6289Z"/>
  </g>
  <g id="Black-S" transform="matrix(1 0 0 1 2884.57 696)">
   <path d="M48.8281 6.83594C71.9727 6.83594 90.8203-12.0117 90.8203-35.1562C90.8203-58.3008 71.9727-77.1484 48.8281-77.1484C25.6836-77.1484 6.83594-58.3008 6.83594-35.1562C6.83594-12.0117 25.6836 6.83594 48.8281 6.83594ZM28.125-40.9668L28.125-46.7773C28.125-51.0742 30.8105-53.7109 35.0098-53.7109L39.8438-53.7109C42.1875-53.7109 43.0664-53.2227 44.6289-52.1973L45.3613-51.709C46.7285-50.8301 47.6074-50.3906 49.1211-50.3906L62.6953-50.3906C67.041-50.3906 69.5312-47.9004 69.5312-43.6035L69.5312-40.9668ZM28.125-24.5605L28.125-37.2559L69.5312-37.2559L69.5312-24.5605C69.5312-20.3125 67.041-17.7734 62.6953-17.7734L34.9609-17.7734C30.6152-17.7734 28.125-20.3125 28.125-24.5605Z"/>
  </g>
  <g id="Heavy-S" transform="matrix(1 0 0 1 2588.47 696)">
   <path d="M48.2422 6.20117C70.9961 6.20117 89.5996-12.4023 89.5996-35.1562C89.5996-57.9102 70.9961-76.5625 48.1934-76.5625C25.4395-76.5625 6.83594-57.9102 6.83594-35.1562C6.83594-12.4023 25.4395 6.20117 48.2422 6.20117ZM27.1973-41.4551L27.1973-47.0215C27.1973-51.2207 29.7363-53.7109 33.7402-53.7109L38.8184-53.7109C41.0156-53.7109 41.9434-53.2715 43.4082-52.2461L44.2871-51.6602C45.5566-50.8301 46.3867-50.3906 47.8516-50.3906L62.5488-50.3906C66.8457-50.3906 69.2383-47.998 69.2383-43.75L69.2383-41.4551ZM27.1973-24.2676L27.1973-37.793L69.2383-37.793L69.2383-24.2676C69.2383-20.0684 66.8457-17.627 62.6953-17.627L33.8867-17.627C29.5898-17.627 27.1973-20.0684 27.1973-24.2676Z"/>
  </g>
  <g id="Bold-S" transform="matrix(1 0 0 1 2292.44 696)">
   <path d="M47.5586 5.51758C69.873 5.51758 88.2324-12.8418 88.2324-35.2051C88.2324-57.5195 69.873-75.8789 47.5098-75.8789C25.1953-75.8789 6.83594-57.5195 6.83594-35.2051C6.83594-12.8418 25.1953 5.51758 47.5586 5.51758ZM26.1719-41.9922L26.1719-47.2656C26.1719-51.416 28.5156-53.7598 32.3242-53.7598L37.6465-53.7598C39.6973-53.7598 40.625-53.3203 42.0898-52.2949L43.0664-51.6113C44.2383-50.8301 45.0195-50.3906 46.3867-50.3906L62.3535-50.3906C66.6016-50.3906 68.8965-48.0957 68.8965-43.9453L68.8965-41.9922ZM26.1719-23.877L26.1719-38.3789L68.8965-38.3789L68.8965-23.877C68.8965-19.7754 66.6504-17.4805 62.7441-17.4805L32.7148-17.4805C28.4668-17.4805 26.1719-19.7754 26.1719-23.877Z"/>
  </g>
  <g id="Semibold-S" transform="matrix(1 0 0 1 1996.2 696)">
   <path d="M47.0703 5.0293C69.0918 5.0293 87.3047-13.1348 87.3047-35.2051C87.3047-57.2266 69.0918-75.4395 47.0215-75.4395C25-75.4395 6.83594-57.2266 6.83594-35.2051C6.83594-13.1348 25.0488 5.0293 47.0703 5.0293ZM25.4395-42.334L25.4395-47.4609C25.4395-51.5625 27.6855-53.7598 31.3477-53.7598L36.8652-53.7598C38.8184-53.7598 39.7461-53.3691 41.1621-52.3438L42.2363-51.5625C43.3105-50.7812 44.043-50.3906 45.4102-50.3906L62.2559-50.3906C66.4551-50.3906 68.7012-48.1934 68.7012-44.043L68.7012-42.334ZM25.4395-23.6328L25.4395-38.8184L68.7012-38.8184L68.7012-23.6328C68.7012-19.5801 66.5039-17.3828 62.7441-17.3828L31.8848-17.3828C27.6855-17.3828 25.4395-19.5801 25.4395-23.6328Z"/>
  </g>
  <g id="Medium-S" transform="matrix(1 0 0 1 1699.83 696)">
   <path d="M46.7285 4.6875C68.5547 4.6875 86.6211-13.3789 86.6211-35.2051C86.6211-57.0312 68.5059-75.0977 46.6797-75.0977C24.8535-75.0977 6.83594-57.0312 6.83594-35.2051C6.83594-13.3789 24.9023 4.6875 46.7285 4.6875ZM24.9023-42.627L24.9023-47.6074C24.9023-51.6602 27.0508-53.7598 30.6152-53.7598L36.2305-53.7598C38.0859-53.7598 39.1113-53.3691 40.4785-52.3926L41.6016-51.5137C42.627-50.7812 43.3594-50.3906 44.6289-50.3906L62.1582-50.3906C66.3574-50.3906 68.5059-48.2422 68.5059-44.1406L68.5059-42.627ZM24.9023-23.4863L24.9023-39.1113L68.5059-39.1113L68.5059-23.4863C68.5059-19.4336 66.4062-17.2852 62.793-17.2852L31.25-17.2852C27.0996-17.2852 24.9023-19.4336 24.9023-23.4863Z"/>
  </g>
  <g id="Regular-S" transform="matrix(1 0 0 1 1403.58 696)">
   <path d="M46.2402 4.19922C67.7734 4.19922 85.6934-13.6719 85.6934-35.2051C85.6934-56.7383 67.7246-74.6094 46.1914-74.6094C24.707-74.6094 6.83594-56.7383 6.83594-35.2051C6.83594-13.6719 24.7559 4.19922 46.2402 4.19922ZM24.2188-42.9688L24.2188-47.8027C24.2188-51.7578 26.2207-53.8086 29.6875-53.8086L35.4492-53.8086C37.207-53.8086 38.2324-53.418 39.5508-52.4414L40.7715-51.5137C41.748-50.7812 42.4316-50.3906 43.6523-50.3906L62.0605-50.3906C66.2109-50.3906 68.3105-48.3398 68.3105-44.2871L68.3105-42.9688ZM24.2188-23.2422L24.2188-39.502L68.3105-39.502L68.3105-23.2422C68.3105-19.2383 66.2598-17.1875 62.793-17.1875L30.4688-17.1875C26.3184-17.1875 24.2188-19.1895 24.2188-23.2422Z"/>
  </g>
  <g id="Light-S" transform="matrix(1 0 0 1 1107.6 696)">
   <path d="M45.5078 3.4668C66.6992 3.4668 84.2285-14.0137 84.2285-35.2051C84.2285-56.3965 66.6504-73.877 45.5078-73.877C24.3164-73.877 6.83594-56.3965 6.83594-35.2051C6.83594-14.0137 24.3652 3.4668 45.5078 3.4668ZM23.3887-42.8223L23.3887-48.2422C23.3887-51.9043 25.2441-53.7109 28.5156-53.7109L34.2773-53.7109C36.1816-53.7109 37.0605-53.418 38.3789-52.3438L39.5508-51.416C40.5273-50.5859 41.2109-50.2441 42.6758-50.2441L61.7676-50.2441C65.6738-50.2441 67.627-48.2422 67.627-44.4336L67.627-42.8223ZM23.3887-23.1445L23.3887-39.8438L67.627-39.8438L67.627-23.1445C67.627-19.3848 65.6738-17.4316 62.2559-17.4316L29.2969-17.4316C25.3906-17.4316 23.3887-19.3359 23.3887-23.1445Z"/>
  </g>
  <g id="Thin-S" transform="matrix(1 0 0 1 811.867 696)">
   <path d="M44.5801 2.53906C65.2832 2.53906 82.2754-14.502 82.2754-35.2051C82.2754-55.9082 65.2344-72.9492 44.5312-72.9492C23.8281-72.9492 6.83594-55.9082 6.83594-35.2051C6.83594-14.502 23.877 2.53906 44.5801 2.53906ZM22.3145-42.6758L22.3145-48.877C22.3145-52.0508 23.877-53.6133 26.9531-53.6133L32.8125-53.6133C34.7656-53.6133 35.498-53.3691 36.8164-52.2461L37.8906-51.2695C38.9648-50.3418 39.6484-50.0488 41.3574-50.0488L61.377-50.0488C64.9414-50.0488 66.7969-48.1445 66.7969-44.6777L66.7969-42.6758ZM22.3145-23.0469L22.3145-40.2832L66.7969-40.2832L66.7969-23.0469C66.7969-19.5312 64.9414-17.7246 61.5723-17.7246L27.7344-17.7246C24.2188-17.7246 22.3145-19.5312 22.3145-23.0469Z"/>
  </g>
  <g id="Ultralight-S" transform="matrix(1 0 0 1 515.644 696)">
   <path d="M44.043 2.00195C64.502 2.00195 81.2988-14.7461 81.2988-35.2051C81.2988-55.6641 64.502-72.4121 44.043-72.4121C23.584-72.4121 6.83594-55.6641 6.83594-35.2051C6.83594-14.7461 23.584 2.00195 44.043 2.00195ZM21.7773-42.5293L21.7773-49.2188C21.7773-52.1484 23.1934-53.5645 26.1719-53.5645L32.0312-53.5645C34.082-53.5645 34.7168-53.3691 36.0352-52.1484L37.0605-51.1719C38.1348-50.1953 38.8672-49.9512 40.6738-49.9512L61.1816-49.9512C64.5508-49.9512 66.3574-48.0957 66.3574-44.7754L66.3574-42.5293ZM21.7773-22.998L21.7773-40.5273L66.3574-40.5273L66.3574-22.998C66.3574-19.6777 64.5508-17.8711 61.2305-17.8711L26.9531-17.8711C23.584-17.8711 21.7773-19.6289 21.7773-22.998Z"/>
  </g>
 </g>
</svg>
